<svg version="1.1" viewBox="0.0 0.0 877.7532808398951 513.5590551181102" fill="none" stroke="none" stroke-linecap="square" stroke-miterlimit="10" xmlns:xlink="http://www.w3.org/1999/xlink" xmlns="http://www.w3.org/2000/svg"><clipPath id="p.0"><path d="m0 0l877.7533 0l0 513.5591l-877.7533 0l0 -513.5591z" clip-rule="nonzero"/></clipPath><g clip-path="url(#p.0)"><path fill="#000000" fill-opacity="0.0" d="m0 0l877.7533 0l0 513.5591l-877.7533 0z" fill-rule="evenodd"/><path fill="#cfe2f3" d="m13.015748 203.1837l134.4567 0l0 46.07875l-134.4567 0z" fill-rule="evenodd"/><path stroke="#999999" stroke-width="1.0" stroke-linejoin="round" stroke-linecap="butt" d="m13.015748 203.1837l134.4567 0l0 46.07875l-134.4567 0z" fill-rule="evenodd"/><path fill="#000000" d="m64.83394 229.5987l2.890625 -8.890625l2.171875 0l-4.09375 11.375l-1.921875 0l-4.078125 -11.375l2.171875 0l2.859375 8.890625zm8.1796875 2.484375l-1.90625 0l0 -8.453125l1.90625 0l0 8.453125zm-2.015625 -10.65625q0 -0.4375 0.265625 -0.71875q0.28125 -0.296875 0.796875 -0.296875q0.515625 0 0.796875 0.296875q0.28125 0.28125 0.28125 0.71875q0 0.4375 -0.28125 0.71875q-0.28125 0.28125 -0.796875 0.28125q-0.515625 0 -0.796875 -0.28125q-0.265625 -0.28125 -0.265625 -0.71875zm3.7265625 6.359375q0 -1.953125 0.90625 -3.125q0.90625 -1.1875 2.421875 -1.1875q1.34375 0 2.171875 0.9375l0 -4.328125l1.90625 0l0 12.0l-1.71875 0l-0.09375 -0.875q-0.859375 1.03125 -2.28125 1.03125q-1.484375 0 -2.40625 -1.1875q-0.90625 -1.203125 -0.90625 -3.265625zm1.890625 0.171875q0 1.28125 0.5 2.015625q0.5 0.71875 1.40625 0.71875q1.171875 0 1.703125 -1.046875l0 -3.609375q-0.515625 -1.015625 -1.6875 -1.015625q-0.921875 0 -1.421875 0.734375q-0.5 0.734375 -0.5 2.203125zm11.21875 4.28125q-1.8125 0 -2.9375 -1.140625q-1.109375 -1.140625 -1.109375 -3.03125l0 -0.234375q0 -1.265625 0.484375 -2.25q0.484375 -1.0 1.359375 -1.546875q0.890625 -0.5625 1.984375 -0.5625q1.71875 0 2.65625 1.109375q0.953125 1.09375 0.953125 3.109375l0 0.765625l-5.53125 0q0.09375 1.046875 0.703125 1.65625q0.609375 0.609375 1.546875 0.609375q1.296875 0 2.125 -1.0625l1.015625 0.984375q-0.5 0.75 -1.359375 1.171875q-0.84375 0.421875 -1.890625 0.421875zm-0.234375 -7.25q-0.78125 0 -1.265625 0.546875q-0.46875 0.546875 -0.609375 1.53125l3.625 0l0 -0.140625q-0.0625 -0.953125 -0.515625 -1.4375q-0.4375 -0.5 -1.234375 -0.5zm4.7421875 2.78125q0 -1.234375 0.484375 -2.234375q0.5 -1.0 1.390625 -1.53125q0.890625 -0.53125 2.046875 -0.53125q1.703125 0 2.765625 1.109375q1.078125 1.09375 1.15625 2.90625l0.015625 0.453125q0 1.25 -0.484375 2.234375q-0.484375 0.984375 -1.375 1.53125q-0.890625 0.53125 -2.0625 0.53125q-1.796875 0 -2.875 -1.1875q-1.0625 -1.203125 -1.0625 -3.1875l0 -0.09375zm1.890625 0.171875q0 1.296875 0.53125 2.046875q0.546875 0.734375 1.5 0.734375q0.96875 0 1.5 -0.75q0.546875 -0.75 0.546875 -2.203125q0 -1.28125 -0.5625 -2.03125q-0.546875 -0.75 -1.484375 -0.75q-0.9375 0 -1.484375 0.75q-0.546875 0.734375 -0.546875 2.203125z" fill-rule="nonzero"/><path fill="#d9ead3" d="m252.5017 81.60053l248.72441 0l0 79.9685l-248.72441 0z" fill-rule="evenodd"/><path stroke="#999999" stroke-width="1.0" stroke-linejoin="round" stroke-linecap="butt" d="m252.5017 81.60053l248.72441 0l0 79.9685l-248.72441 0z" fill-rule="evenodd"/><path fill="#000000" d="m262.5017 113.31978q0 -1.8125 0.484375 -3.421875q0.484375 -1.625 1.421875 -2.90625q0.9375 -1.28125 1.984375 -1.796875l0.375 1.109375q-1.09375 0.84375 -1.78125 2.5625q-0.6875 1.703125 -0.75 3.921875l0 0.671875q0 2.359375 0.65625 4.21875q0.671875 1.859375 1.875 2.828125l-0.375 1.0625q-1.046875 -0.515625 -1.984375 -1.8125q-0.9375 -1.28125 -1.421875 -2.890625q-0.484375 -1.625 -0.484375 -3.546875zm12.84375 -0.171875q0 2.453125 -0.921875 3.703125q-0.90625 1.25 -2.78125 1.25q-1.84375 0 -2.78125 -1.21875q-0.9375 -1.21875 -0.953125 -3.59375l0 -1.96875q0 -2.453125 0.90625 -3.671875q0.921875 -1.234375 2.8125 -1.234375q1.859375 0 2.78125 1.203125q0.921875 1.1875 0.9375 3.5625l0 1.96875zm-1.890625 -2.125q0 -1.59375 -0.4375 -2.34375q-0.4375 -0.75 -1.390625 -0.75q-0.9375 0 -1.375 0.71875q-0.4375 0.703125 -0.453125 2.203125l0 2.578125q0 1.59375 0.4375 2.375q0.453125 0.78125 1.40625 0.78125q0.90625 0 1.34375 -0.71875q0.4375 -0.734375 0.46875 -2.265625l0 -2.578125zm11.359375 2.84375l-4.09375 0l0 -1.53125l4.09375 0l0 1.53125zm14.765625 4.078125l-1.984375 0l-5.0625 -8.078125l0 8.078125l-1.984375 0l0 -11.375l1.984375 0l5.078125 8.09375l0 -8.09375l1.96875 0l0 11.375zm11.40625 -5.390625q0 1.671875 -0.578125 2.9375q-0.578125 1.25 -1.65625 1.9375q-1.0625 0.671875 -2.46875 0.671875q-1.375 0 -2.46875 -0.671875q-1.078125 -0.6875 -1.671875 -1.9375q-0.578125 -1.25 -0.59375 -2.875l0 -0.640625q0 -1.671875 0.59375 -2.9375q0.59375 -1.28125 1.65625 -1.953125q1.078125 -0.671875 2.46875 -0.671875q1.390625 0 2.46875 0.671875q1.078125 0.65625 1.65625 1.921875q0.59375 1.25 0.59375 2.90625l0 0.640625zm-1.96875 -0.59375q0 -1.890625 -0.71875 -2.890625q-0.71875 -1.015625 -2.03125 -1.015625q-1.28125 0 -2.0 1.0q-0.71875 1.0 -0.734375 2.84375l0 0.65625q0 1.875 0.71875 2.90625q0.734375 1.015625 2.03125 1.015625q1.3125 0 2.015625 -1.0q0.71875 -1.0 0.71875 -2.921875l0 -0.59375zm7.421875 1.484375q0 1.734375 -0.484375 3.359375q-0.46875 1.609375 -1.4375 2.921875q-0.96875 1.328125 -2.03125 1.84375l-0.375 -1.0625q1.171875 -0.90625 1.859375 -2.765625q0.6875 -1.875 0.6875 -4.265625l0 -0.171875q0 -2.171875 -0.59375 -3.953125q-0.59375 -1.796875 -1.703125 -2.875l-0.25 -0.21875l0.375 -1.0625q1.0 0.484375 1.9375 1.71875q0.9375 1.234375 1.4375 2.765625q0.5 1.53125 0.5625 3.15625l0.015625 0.609375z" fill-rule="nonzero"/><path fill="#000000" d="m271.6892 136.94478l-1.984375 0l-5.0625 -8.078125l0 8.078125l-1.984375 0l0 -11.375l1.984375 0l5.078125 8.09375l0 -8.09375l1.96875 0l0 11.375zm1.796875 -4.3125q0 -1.234375 0.484375 -2.234375q0.5 -1.0 1.390625 -1.53125q0.890625 -0.53125 2.046875 -0.53125q1.703125 0 2.765625 1.109375q1.078125 1.09375 1.15625 2.90625l0.015625 0.453125q0 1.25 -0.484375 2.234375q-0.484375 0.984375 -1.375 1.53125q-0.890625 0.53125 -2.0625 0.53125q-1.796875 0 -2.875 -1.1875q-1.0625 -1.203125 -1.0625 -3.1875l0 -0.09375zm1.890625 0.171875q0 1.296875 0.53125 2.046875q0.546875 0.734375 1.5 0.734375q0.96875 0 1.5 -0.75q0.546875 -0.75 0.546875 -2.203125q0 -1.28125 -0.5625 -2.03125q-0.546875 -0.75 -1.484375 -0.75q-0.9375 0 -1.484375 0.75q-0.546875 0.734375 -0.546875 2.203125zm18.953125 0q0 1.953125 -0.890625 3.125q-0.890625 1.171875 -2.390625 1.171875q-1.390625 0 -2.21875 -0.921875l0 4.015625l-1.90625 0l0 -11.703125l1.75 0l0.078125 0.859375q0.84375 -1.015625 2.28125 -1.015625q1.546875 0 2.421875 1.15625q0.875 1.140625 0.875 3.1875l0 0.125zm-1.890625 -0.171875q0 -1.265625 -0.5 -2.0q-0.5 -0.75 -1.4375 -0.75q-1.171875 0 -1.671875 0.96875l0 3.75q0.515625 0.984375 1.6875 0.984375q0.90625 0 1.40625 -0.734375q0.515625 -0.734375 0.515625 -2.21875zm7.9296875 -2.40625q-0.375 -0.0625 -0.78125 -0.0625q-1.296875 0 -1.75 1.0l0 5.78125l-1.90625 0l0 -8.453125l1.8125 0l0.046875 0.9375q0.6875 -1.09375 1.90625 -1.09375q0.40625 0 0.671875 0.109375l0 1.78125zm4.7734375 6.875q-1.8125 0 -2.9375 -1.140625q-1.109375 -1.140625 -1.109375 -3.03125l0 -0.234375q0 -1.265625 0.484375 -2.25q0.484375 -1.0 1.359375 -1.546875q0.890625 -0.5625 1.984375 -0.5625q1.71875 0 2.65625 1.109375q0.953125 1.09375 0.953125 3.109375l0 0.765625l-5.53125 0q0.09375 1.046875 0.703125 1.65625q0.609375 0.609375 1.546875 0.609375q1.296875 0 2.125 -1.0625l1.015625 0.984375q-0.5 0.75 -1.359375 1.171875q-0.84375 0.421875 -1.890625 0.421875zm-0.234375 -7.25q-0.78125 0 -1.265625 0.546875q-0.46875 0.546875 -0.609375 1.53125l3.625 0l0 -0.140625q-0.0625 -0.953125 -0.515625 -1.4375q-0.4375 -0.5 -1.234375 -0.5zm9.8359375 4.796875q0 -0.515625 -0.421875 -0.78125q-0.421875 -0.265625 -1.390625 -0.46875q-0.96875 -0.203125 -1.609375 -0.515625q-1.421875 -0.6875 -1.421875 -1.984375q0 -1.09375 0.921875 -1.828125q0.921875 -0.734375 2.34375 -0.734375q1.515625 0 2.4375 0.75q0.9375 0.75 0.9375 1.9375l-1.890625 0q0 -0.546875 -0.40625 -0.90625q-0.40625 -0.359375 -1.078125 -0.359375q-0.625 0 -1.03125 0.296875q-0.390625 0.28125 -0.390625 0.765625q0 0.4375 0.359375 0.6875q0.375 0.234375 1.484375 0.484375q1.125 0.234375 1.765625 0.578125q0.640625 0.34375 0.9375 0.828125q0.3125 0.46875 0.3125 1.140625q0 1.140625 -0.953125 1.859375q-0.9375 0.703125 -2.46875 0.703125q-1.03125 0 -1.84375 -0.375q-0.8125 -0.375 -1.265625 -1.03125q-0.453125 -0.65625 -0.453125 -1.421875l1.84375 0q0.03125 0.671875 0.5 1.046875q0.46875 0.359375 1.25 0.359375q0.75 0 1.140625 -0.28125q0.390625 -0.296875 0.390625 -0.75zm7.2421875 2.453125q-1.8125 0 -2.9375 -1.140625q-1.109375 -1.140625 -1.109375 -3.03125l0 -0.234375q0 -1.265625 0.484375 -2.25q0.484375 -1.0 1.359375 -1.546875q0.890625 -0.5625 1.984375 -0.5625q1.71875 0 2.65625 1.109375q0.953125 1.09375 0.953125 3.109375l0 0.765625l-5.53125 0q0.09375 1.046875 0.703125 1.65625q0.609375 0.609375 1.546875 0.609375q1.296875 0 2.125 -1.0625l1.015625 0.984375q-0.5 0.75 -1.359375 1.171875q-0.84375 0.421875 -1.890625 0.421875zm-0.234375 -7.25q-0.78125 0 -1.265625 0.546875q-0.46875 0.546875 -0.609375 1.53125l3.625 0l0 -0.140625q-0.0625 -0.953125 -0.515625 -1.4375q-0.4375 -0.5 -1.234375 -0.5zm6.8515625 -1.359375l0.0625 0.96875q0.9375 -1.125 2.453125 -1.125q2.640625 0 2.6875 3.015625l0 5.59375l-1.890625 0l0 -5.484375q0 -0.796875 -0.359375 -1.1875q-0.34375 -0.390625 -1.125 -0.390625q-1.15625 0 -1.71875 1.046875l0 6.015625l-1.890625 0l0 -8.453125l1.78125 0zm9.5234375 -2.0625l0 2.0625l1.484375 0l0 1.40625l-1.484375 0l0 4.71875q0 0.484375 0.1875 0.703125q0.1875 0.203125 0.6875 0.203125q0.328125 0 0.65625 -0.078125l0 1.46875q-0.640625 0.1875 -1.25 0.1875q-2.1875 0 -2.1875 -2.421875l0 -4.78125l-1.390625 0l0 -1.40625l1.390625 0l0 -2.0625l1.90625 0zm7.9921875 10.515625q-0.125 -0.25 -0.21875 -0.796875q-0.90625 0.953125 -2.21875 0.953125q-1.28125 0 -2.09375 -0.71875q-0.796875 -0.734375 -0.796875 -1.8125q0 -1.34375 1.0 -2.0625q1.015625 -0.734375 2.875 -0.734375l1.171875 0l0 -0.546875q0 -0.65625 -0.375 -1.046875q-0.359375 -0.40625 -1.109375 -0.40625q-0.65625 0 -1.078125 0.328125q-0.40625 0.328125 -0.40625 0.828125l-1.890625 0q0 -0.703125 0.453125 -1.296875q0.46875 -0.609375 1.25 -0.953125q0.796875 -0.34375 1.78125 -0.34375q1.484375 0 2.359375 0.75q0.890625 0.734375 0.90625 2.09375l0 3.8125q0 1.140625 0.328125 1.8125l0 0.140625l-1.9375 0zm-2.09375 -1.375q0.5625 0 1.0625 -0.265625q0.5 -0.28125 0.75 -0.734375l0 -1.59375l-1.03125 0q-1.046875 0 -1.578125 0.375q-0.53125 0.359375 -0.53125 1.03125q0 0.546875 0.359375 0.875q0.359375 0.3125 0.96875 0.3125zm13.15625 0.015625q0.703125 0 1.171875 -0.40625q0.46875 -0.421875 0.5 -1.03125l1.796875 0q-0.03125 0.78125 -0.5 1.46875q-0.453125 0.6875 -1.25 1.09375q-0.78125 0.390625 -1.703125 0.390625q-1.765625 0 -2.8125 -1.140625q-1.03125 -1.15625 -1.03125 -3.1875l0 -0.1875q0 -1.9375 1.03125 -3.09375q1.03125 -1.15625 2.8125 -1.15625q1.5 0 2.453125 0.875q0.953125 0.875 1.0 2.3125l-1.796875 0q-0.03125 -0.734375 -0.5 -1.203125q-0.453125 -0.46875 -1.171875 -0.46875q-0.921875 0 -1.421875 0.671875q-0.5 0.671875 -0.515625 2.03125l0 0.296875q0 1.375 0.5 2.0625q0.5 0.671875 1.4375 0.671875zm4.546875 -2.953125q0 -1.234375 0.484375 -2.234375q0.5 -1.0 1.390625 -1.53125q0.890625 -0.53125 2.046875 -0.53125q1.703125 0 2.765625 1.109375q1.078125 1.09375 1.15625 2.90625l0.015625 0.453125q0 1.25 -0.484375 2.234375q-0.484375 0.984375 -1.375 1.53125q-0.890625 0.53125 -2.0625 0.53125q-1.796875 0 -2.875 -1.1875q-1.0625 -1.203125 -1.0625 -3.1875l0 -0.09375zm1.890625 0.171875q0 1.296875 0.53125 2.046875q0.546875 0.734375 1.5 0.734375q0.96875 0 1.5 -0.75q0.546875 -0.75 0.546875 -2.203125q0 -1.28125 -0.5625 -2.03125q-0.546875 -0.75 -1.484375 -0.75q-0.9375 0 -1.484375 0.75q-0.546875 0.734375 -0.546875 2.203125zm9.328125 -4.3125l0.0625 0.96875q0.9375 -1.125 2.453125 -1.125q2.640625 0 2.6875 3.015625l0 5.59375l-1.890625 0l0 -5.484375q0 -0.796875 -0.359375 -1.1875q-0.34375 -0.390625 -1.125 -0.390625q-1.15625 0 -1.71875 1.046875l0 6.015625l-1.890625 0l0 -8.453125l1.78125 0zm9.5234375 -2.0625l0 2.0625l1.484375 0l0 1.40625l-1.484375 0l0 4.71875q0 0.484375 0.1875 0.703125q0.1875 0.203125 0.6875 0.203125q0.328125 0 0.65625 -0.078125l0 1.46875q-0.640625 0.1875 -1.25 0.1875q-2.1875 0 -2.1875 -2.421875l0 -4.78125l-1.390625 0l0 -1.40625l1.390625 0l0 -2.0625l1.90625 0zm6.6640625 10.671875q-1.8125 0 -2.9375 -1.140625q-1.109375 -1.140625 -1.109375 -3.03125l0 -0.234375q0 -1.265625 0.484375 -2.25q0.484375 -1.0 1.359375 -1.546875q0.890625 -0.5625 1.984375 -0.5625q1.71875 0 2.65625 1.109375q0.953125 1.09375 0.953125 3.109375l0 0.765625l-5.53125 0q0.09375 1.046875 0.703125 1.65625q0.609375 0.609375 1.546875 0.609375q1.296875 0 2.125 -1.0625l1.015625 0.984375q-0.5 0.75 -1.359375 1.171875q-0.84375 0.421875 -1.890625 0.421875zm-0.234375 -7.25q-0.78125 0 -1.265625 0.546875q-0.46875 0.546875 -0.609375 1.53125l3.625 0l0 -0.140625q-0.0625 -0.953125 -0.515625 -1.4375q-0.4375 -0.5 -1.234375 -0.5zm6.8515625 -1.359375l0.0625 0.96875q0.9375 -1.125 2.453125 -1.125q2.640625 0 2.6875 3.015625l0 5.59375l-1.890625 0l0 -5.484375q0 -0.796875 -0.359375 -1.1875q-0.34375 -0.390625 -1.125 -0.390625q-1.15625 0 -1.71875 1.046875l0 6.015625l-1.890625 0l0 -8.453125l1.78125 0zm9.1640625 8.453125l-1.90625 0l0 -8.453125l1.90625 0l0 8.453125zm-2.015625 -10.65625q0 -0.4375 0.265625 -0.71875q0.28125 -0.296875 0.796875 -0.296875q0.515625 0 0.796875 0.296875q0.28125 0.28125 0.28125 0.71875q0 0.4375 -0.28125 0.71875q-0.28125 0.28125 -0.796875 0.28125q-0.515625 0 -0.796875 -0.28125q-0.265625 -0.28125 -0.265625 -0.71875zm3.7265625 6.359375q0 -1.953125 0.90625 -3.125q0.90625 -1.1875 2.421875 -1.1875q1.34375 0 2.171875 0.9375l0 -4.328125l1.90625 0l0 12.0l-1.71875 0l-0.09375 -0.875q-0.859375 1.03125 -2.28125 1.03125q-1.484375 0 -2.40625 -1.1875q-0.90625 -1.203125 -0.90625 -3.265625zm1.890625 0.171875q0 1.28125 0.5 2.015625q0.5 0.71875 1.40625 0.71875q1.171875 0 1.703125 -1.046875l0 -3.609375q-0.515625 -1.015625 -1.6875 -1.015625q-0.921875 0 -1.421875 0.734375q-0.5 0.734375 -0.5 2.203125zm7.140625 -0.1875q0 -1.234375 0.484375 -2.234375q0.5 -1.0 1.390625 -1.53125q0.890625 -0.53125 2.046875 -0.53125q1.703125 0 2.765625 1.109375q1.078125 1.09375 1.15625 2.90625l0.015625 0.453125q0 1.25 -0.484375 2.234375q-0.484375 0.984375 -1.375 1.53125q-0.890625 0.53125 -2.0625 0.53125q-1.796875 0 -2.875 -1.1875q-1.0625 -1.203125 -1.0625 -3.1875l0 -0.09375zm1.890625 0.171875q0 1.296875 0.53125 2.046875q0.546875 0.734375 1.5 0.734375q0.96875 0 1.5 -0.75q0.546875 -0.75 0.546875 -2.203125q0 -1.28125 -0.5625 -2.03125q-0.546875 -0.75 -1.484375 -0.75q-0.9375 0 -1.484375 0.75q-0.546875 0.734375 -0.546875 2.203125zm11.203125 -0.15625q0 -1.953125 0.90625 -3.125q0.90625 -1.1875 2.421875 -1.1875q1.34375 0 2.171875 0.9375l0 -4.328125l1.90625 0l0 12.0l-1.71875 0l-0.09375 -0.875q-0.859375 1.03125 -2.28125 1.03125q-1.484375 0 -2.40625 -1.1875q-0.90625 -1.203125 -0.90625 -3.265625zm1.890625 0.171875q0 1.28125 0.5 2.015625q0.5 0.71875 1.40625 0.71875q1.171875 0 1.703125 -1.046875l0 -3.609375q-0.515625 -1.015625 -1.6875 -1.015625q-0.921875 0 -1.421875 0.734375q-0.5 0.734375 -0.5 2.203125zm11.21875 4.28125q-1.8125 0 -2.9375 -1.140625q-1.109375 -1.140625 -1.109375 -3.03125l0 -0.234375q0 -1.265625 0.484375 -2.25q0.484375 -1.0 1.359375 -1.546875q0.890625 -0.5625 1.984375 -0.5625q1.71875 0 2.65625 1.109375q0.953125 1.09375 0.953125 3.109375l0 0.765625l-5.53125 0q0.09375 1.046875 0.703125 1.65625q0.609375 0.609375 1.546875 0.609375q1.296875 0 2.125 -1.0625l1.015625 0.984375q-0.5 0.75 -1.359375 1.171875q-0.84375 0.421875 -1.890625 0.421875zm-0.234375 -7.25q-0.78125 0 -1.265625 0.546875q-0.46875 0.546875 -0.609375 1.53125l3.625 0l0 -0.140625q-0.0625 -0.953125 -0.515625 -1.4375q-0.4375 -0.5 -1.234375 -0.5zm8.7265625 2.78125q0 -1.234375 0.484375 -2.234375q0.5 -1.0 1.390625 -1.53125q0.890625 -0.53125 2.046875 -0.53125q1.703125 0 2.765625 1.109375q1.078125 1.09375 1.15625 2.90625l0.015625 0.453125q0 1.25 -0.484375 2.234375q-0.484375 0.984375 -1.375 1.53125q-0.890625 0.53125 -2.0625 0.53125q-1.796875 0 -2.875 -1.1875q-1.0625 -1.203125 -1.0625 -3.1875l0 -0.09375zm1.890625 0.171875q0 1.296875 0.53125 2.046875q0.546875 0.734375 1.5 0.734375q0.96875 0 1.5 -0.75q0.546875 -0.75 0.546875 -2.203125q0 -1.28125 -0.5625 -2.03125q-0.546875 -0.75 -1.484375 -0.75q-0.9375 0 -1.484375 0.75q-0.546875 0.734375 -0.546875 2.203125zm7.21875 -0.15625q0 -1.953125 0.90625 -3.125q0.90625 -1.1875 2.421875 -1.1875q1.34375 0 2.171875 0.9375l0 -4.328125l1.90625 0l0 12.0l-1.71875 0l-0.09375 -0.875q-0.859375 1.03125 -2.28125 1.03125q-1.484375 0 -2.40625 -1.1875q-0.90625 -1.203125 -0.90625 -3.265625zm1.890625 0.171875q0 1.28125 0.5 2.015625q0.5 0.71875 1.40625 0.71875q1.171875 0 1.703125 -1.046875l0 -3.609375q-0.515625 -1.015625 -1.6875 -1.015625q-0.921875 0 -1.421875 0.734375q-0.5 0.734375 -0.5 2.203125zm9.515625 4.125l-1.90625 0l0 -8.453125l1.90625 0l0 8.453125zm-2.015625 -10.65625q0 -0.4375 0.265625 -0.71875q0.28125 -0.296875 0.796875 -0.296875q0.515625 0 0.796875 0.296875q0.28125 0.28125 0.28125 0.71875q0 0.4375 -0.28125 0.71875q-0.28125 0.28125 -0.796875 0.28125q-0.515625 0 -0.796875 -0.28125q-0.265625 -0.28125 -0.265625 -0.71875zm3.7265625 6.34375q0 -1.234375 0.484375 -2.234375q0.5 -1.0 1.390625 -1.53125q0.890625 -0.53125 2.046875 -0.53125q1.703125 0 2.765625 1.109375q1.078125 1.09375 1.15625 2.90625l0.015625 0.453125q0 1.25 -0.484375 2.234375q-0.484375 0.984375 -1.375 1.53125q-0.890625 0.53125 -2.0625 0.53125q-1.796875 0 -2.875 -1.1875q-1.0625 -1.203125 -1.0625 -3.1875l0 -0.09375zm1.890625 0.171875q0 1.296875 0.53125 2.046875q0.546875 0.734375 1.5 0.734375q0.96875 0 1.5 -0.75q0.546875 -0.75 0.546875 -2.203125q0 -1.28125 -0.5625 -2.03125q-0.546875 -0.75 -1.484375 -0.75q-0.9375 0 -1.484375 0.75q-0.546875 0.734375 -0.546875 2.203125z" fill-rule="nonzero"/><path fill="#f4cccc" d="m252.5017 318.18814l248.72441 0l0 81.66931l-248.72441 0z" fill-rule="evenodd"/><path stroke="#999999" stroke-width="1.0" stroke-linejoin="round" stroke-linecap="butt" d="m252.5017 318.18814l248.72441 0l0 81.66931l-248.72441 0z" fill-rule="evenodd"/><path fill="#000000" d="m262.5017 350.75778q0 -1.8125 0.484375 -3.421875q0.484375 -1.625 1.421875 -2.90625q0.9375 -1.28125 1.984375 -1.796875l0.375 1.109375q-1.09375 0.84375 -1.78125 2.5625q-0.6875 1.703125 -0.75 3.921875l0 0.671875q0 2.359375 0.65625 4.21875q0.671875 1.859375 1.875 2.828125l-0.375 1.0625q-1.046875 -0.515625 -1.984375 -1.8125q-0.9375 -1.28125 -1.421875 -2.890625q-0.484375 -1.625 -0.484375 -3.546875zm10.578125 4.625l-1.890625 0l0 -9.140625l-2.796875 0.953125l0 -1.59375l4.4375 -1.640625l0.25 0l0 11.421875zm11.734375 -4.078125l-4.09375 0l0 -1.53125l4.09375 0l0 1.53125zm9.453125 -1.90625l2.609375 -5.390625l2.1875 0l-3.8125 7.1875l0 4.1875l-1.984375 0l0 -4.1875l-3.8125 -7.1875l2.1875 0l2.625 5.390625zm12.6875 0.90625l-4.671875 0l0 3.5l5.453125 0l0 1.578125l-7.4375 0l0 -11.375l7.390625 0l0 1.59375l-5.40625 0l0 3.140625l4.671875 0l0 1.5625zm8.34375 2.140625q0 -0.75 -0.53125 -1.15625q-0.53125 -0.40625 -1.90625 -0.8125q-1.375 -0.421875 -2.1875 -0.921875q-1.546875 -0.984375 -1.546875 -2.546875q0 -1.375 1.109375 -2.265625q1.125 -0.890625 2.921875 -0.890625q1.1875 0 2.109375 0.4375q0.9375 0.4375 1.46875 1.25q0.53125 0.796875 0.53125 1.78125l-1.96875 0q0 -0.890625 -0.5625 -1.390625q-0.5625 -0.5 -1.59375 -0.5q-0.96875 0 -1.515625 0.421875q-0.53125 0.40625 -0.53125 1.140625q0 0.625 0.578125 1.046875q0.578125 0.421875 1.90625 0.8125q1.328125 0.390625 2.125 0.90625q0.8125 0.5 1.1875 1.15625q0.375 0.640625 0.375 1.515625q0 1.421875 -1.09375 2.265625q-1.078125 0.84375 -2.953125 0.84375q-1.234375 0 -2.265625 -0.453125q-1.03125 -0.46875 -1.609375 -1.265625q-0.578125 -0.8125 -0.578125 -1.875l1.984375 0q0 0.96875 0.640625 1.5q0.640625 0.53125 1.828125 0.53125q1.03125 0 1.546875 -0.421875q0.53125 -0.421875 0.53125 -1.109375zm7.1875 -1.5625q0 1.734375 -0.484375 3.359375q-0.46875 1.609375 -1.4375 2.921875q-0.96875 1.328125 -2.03125 1.84375l-0.375 -1.0625q1.171875 -0.90625 1.859375 -2.765625q0.6875 -1.875 0.6875 -4.265625l0 -0.171875q0 -2.171875 -0.59375 -3.953125q-0.59375 -1.796875 -1.703125 -2.875l-0.25 -0.21875l0.375 -1.0625q1.0 0.484375 1.9375 1.71875q0.9375 1.234375 1.4375 2.765625q0.5 1.53125 0.5625 3.15625l0.015625 0.609375z" fill-rule="nonzero"/><path fill="#000000" d="m268.61108 371.44528q0 -0.75 -0.53125 -1.15625q-0.53125 -0.40625 -1.90625 -0.8125q-1.375 -0.421875 -2.1875 -0.921875q-1.546875 -0.984375 -1.546875 -2.546875q0 -1.375 1.109375 -2.265625q1.125 -0.890625 2.921875 -0.890625q1.1875 0 2.109375 0.4375q0.9375 0.4375 1.46875 1.25q0.53125 0.796875 0.53125 1.78125l-1.96875 0q0 -0.890625 -0.5625 -1.390625q-0.5625 -0.5 -1.59375 -0.5q-0.96875 0 -1.515625 0.421875q-0.53125 0.40625 -0.53125 1.140625q0 0.625 0.578125 1.046875q0.578125 0.421875 1.90625 0.8125q1.328125 0.390625 2.125 0.90625q0.8125 0.5 1.1875 1.15625q0.375 0.640625 0.375 1.515625q0 1.421875 -1.09375 2.265625q-1.078125 0.84375 -2.953125 0.84375q-1.234375 0 -2.265625 -0.453125q-1.03125 -0.46875 -1.609375 -1.265625q-0.578125 -0.8125 -0.578125 -1.875l1.984375 0q0 0.96875 0.640625 1.5q0.640625 0.53125 1.828125 0.53125q1.03125 0 1.546875 -0.421875q0.53125 -0.421875 0.53125 -1.109375zm5.5625 2.9375l-1.890625 0l0 -8.453125l1.890625 0l0 8.453125zm-0.34375 -11.9375l2.15625 0l-2.15625 2.359375l-1.53125 0l1.53125 -2.359375zm13.890625 7.796875q0 1.953125 -0.890625 3.125q-0.890625 1.171875 -2.390625 1.171875q-1.390625 0 -2.21875 -0.921875l0 4.015625l-1.90625 0l0 -11.703125l1.75 0l0.078125 0.859375q0.84375 -1.015625 2.28125 -1.015625q1.546875 0 2.421875 1.15625q0.875 1.140625 0.875 3.1875l0 0.125zm-1.890625 -0.171875q0 -1.265625 -0.5 -2.0q-0.5 -0.75 -1.4375 -0.75q-1.171875 0 -1.671875 0.96875l0 3.75q0.515625 0.984375 1.6875 0.984375q0.90625 0 1.40625 -0.734375q0.515625 -0.734375 0.515625 -2.21875zm7.9296875 -2.40625q-0.375 -0.0625 -0.78125 -0.0625q-1.296875 0 -1.75 1.0l0 5.78125l-1.90625 0l0 -8.453125l1.8125 0l0.046875 0.9375q0.6875 -1.09375 1.90625 -1.09375q0.40625 0 0.671875 0.109375l0 1.78125zm4.7734375 6.875q-1.8125 0 -2.9375 -1.140625q-1.109375 -1.140625 -1.109375 -3.03125l0 -0.234375q0 -1.265625 0.484375 -2.25q0.484375 -1.0 1.359375 -1.546875q0.890625 -0.5625 1.984375 -0.5625q1.71875 0 2.65625 1.109375q0.953125 1.09375 0.953125 3.109375l0 0.765625l-5.53125 0q0.09375 1.046875 0.703125 1.65625q0.609375 0.609375 1.546875 0.609375q1.296875 0 2.125 -1.0625l1.015625 0.984375q-0.5 0.75 -1.359375 1.171875q-0.84375 0.421875 -1.890625 0.421875zm-0.234375 -7.25q-0.78125 0 -1.265625 0.546875q-0.46875 0.546875 -0.609375 1.53125l3.625 0l0 -0.140625q-0.0625 -0.953125 -0.515625 -1.4375q-0.4375 -0.5 -1.234375 -0.5zm9.8359375 4.796875q0 -0.515625 -0.421875 -0.78125q-0.421875 -0.265625 -1.390625 -0.46875q-0.96875 -0.203125 -1.609375 -0.515625q-1.421875 -0.6875 -1.421875 -1.984375q0 -1.09375 0.921875 -1.828125q0.921875 -0.734375 2.34375 -0.734375q1.515625 0 2.4375 0.75q0.9375 0.75 0.9375 1.9375l-1.890625 0q0 -0.546875 -0.40625 -0.90625q-0.40625 -0.359375 -1.078125 -0.359375q-0.625 0 -1.03125 0.296875q-0.390625 0.28125 -0.390625 0.765625q0 0.4375 0.359375 0.6875q0.375 0.234375 1.484375 0.484375q1.125 0.234375 1.765625 0.578125q0.640625 0.34375 0.9375 0.828125q0.3125 0.46875 0.3125 1.140625q0 1.140625 -0.953125 1.859375q-0.9375 0.703125 -2.46875 0.703125q-1.03125 0 -1.84375 -0.375q-0.8125 -0.375 -1.265625 -1.03125q-0.453125 -0.65625 -0.453125 -1.421875l1.84375 0q0.03125 0.671875 0.5 1.046875q0.46875 0.359375 1.25 0.359375q0.75 0 1.140625 -0.28125q0.390625 -0.296875 0.390625 -0.75zm7.2421875 2.453125q-1.8125 0 -2.9375 -1.140625q-1.109375 -1.140625 -1.109375 -3.03125l0 -0.234375q0 -1.265625 0.484375 -2.25q0.484375 -1.0 1.359375 -1.546875q0.890625 -0.5625 1.984375 -0.5625q1.71875 0 2.65625 1.109375q0.953125 1.09375 0.953125 3.109375l0 0.765625l-5.53125 0q0.09375 1.046875 0.703125 1.65625q0.609375 0.609375 1.546875 0.609375q1.296875 0 2.125 -1.0625l1.015625 0.984375q-0.5 0.75 -1.359375 1.171875q-0.84375 0.421875 -1.890625 0.421875zm-0.234375 -7.25q-0.78125 0 -1.265625 0.546875q-0.46875 0.546875 -0.609375 1.53125l3.625 0l0 -0.140625q-0.0625 -0.953125 -0.515625 -1.4375q-0.4375 -0.5 -1.234375 -0.5zm6.8515625 -1.359375l0.0625 0.96875q0.9375 -1.125 2.453125 -1.125q2.640625 0 2.6875 3.015625l0 5.59375l-1.890625 0l0 -5.484375q0 -0.796875 -0.359375 -1.1875q-0.34375 -0.390625 -1.125 -0.390625q-1.15625 0 -1.71875 1.046875l0 6.015625l-1.890625 0l0 -8.453125l1.78125 0zm9.5234375 -2.0625l0 2.0625l1.484375 0l0 1.40625l-1.484375 0l0 4.71875q0 0.484375 0.1875 0.703125q0.1875 0.203125 0.6875 0.203125q0.328125 0 0.65625 -0.078125l0 1.46875q-0.640625 0.1875 -1.25 0.1875q-2.1875 0 -2.1875 -2.421875l0 -4.78125l-1.390625 0l0 -1.40625l1.390625 0l0 -2.0625l1.90625 0zm7.9921875 10.515625q-0.125 -0.25 -0.21875 -0.796875q-0.90625 0.953125 -2.21875 0.953125q-1.28125 0 -2.09375 -0.71875q-0.796875 -0.734375 -0.796875 -1.8125q0 -1.34375 1.0 -2.0625q1.015625 -0.734375 2.875 -0.734375l1.171875 0l0 -0.546875q0 -0.65625 -0.375 -1.046875q-0.359375 -0.40625 -1.109375 -0.40625q-0.65625 0 -1.078125 0.328125q-0.40625 0.328125 -0.40625 0.828125l-1.890625 0q0 -0.703125 0.453125 -1.296875q0.46875 -0.609375 1.25 -0.953125q0.796875 -0.34375 1.78125 -0.34375q1.484375 0 2.359375 0.75q0.890625 0.734375 0.90625 2.09375l0 3.8125q0 1.140625 0.328125 1.8125l0 0.140625l-1.9375 0zm-2.09375 -1.375q0.5625 0 1.0625 -0.265625q0.5 -0.28125 0.75 -0.734375l0 -1.59375l-1.03125 0q-1.046875 0 -1.578125 0.375q-0.53125 0.359375 -0.53125 1.03125q0 0.546875 0.359375 0.875q0.359375 0.3125 0.96875 0.3125zm13.15625 0.015625q0.703125 0 1.171875 -0.40625q0.46875 -0.421875 0.5 -1.03125l1.796875 0q-0.03125 0.78125 -0.5 1.46875q-0.453125 0.6875 -1.25 1.09375q-0.78125 0.390625 -1.703125 0.390625q-1.765625 0 -2.8125 -1.140625q-1.03125 -1.15625 -1.03125 -3.1875l0 -0.1875q0 -1.9375 1.03125 -3.09375q1.03125 -1.15625 2.8125 -1.15625q1.5 0 2.453125 0.875q0.953125 0.875 1.0 2.3125l-1.796875 0q-0.03125 -0.734375 -0.5 -1.203125q-0.453125 -0.46875 -1.171875 -0.46875q-0.921875 0 -1.421875 0.671875q-0.5 0.671875 -0.515625 2.03125l0 0.296875q0 1.375 0.5 2.0625q0.5 0.671875 1.4375 0.671875zm4.546875 -2.953125q0 -1.234375 0.484375 -2.234375q0.5 -1.0 1.390625 -1.53125q0.890625 -0.53125 2.046875 -0.53125q1.703125 0 2.765625 1.109375q1.078125 1.09375 1.15625 2.90625l0.015625 0.453125q0 1.25 -0.484375 2.234375q-0.484375 0.984375 -1.375 1.53125q-0.890625 0.53125 -2.0625 0.53125q-1.796875 0 -2.875 -1.1875q-1.0625 -1.203125 -1.0625 -3.1875l0 -0.09375zm1.890625 0.171875q0 1.296875 0.53125 2.046875q0.546875 0.734375 1.5 0.734375q0.96875 0 1.5 -0.75q0.546875 -0.75 0.546875 -2.203125q0 -1.28125 -0.5625 -2.03125q-0.546875 -0.75 -1.484375 -0.75q-0.9375 0 -1.484375 0.75q-0.546875 0.734375 -0.546875 2.203125zm9.328125 -4.3125l0.0625 0.96875q0.9375 -1.125 2.453125 -1.125q2.640625 0 2.6875 3.015625l0 5.59375l-1.890625 0l0 -5.484375q0 -0.796875 -0.359375 -1.1875q-0.34375 -0.390625 -1.125 -0.390625q-1.15625 0 -1.71875 1.046875l0 6.015625l-1.890625 0l0 -8.453125l1.78125 0zm9.5234375 -2.0625l0 2.0625l1.484375 0l0 1.40625l-1.484375 0l0 4.71875q0 0.484375 0.1875 0.703125q0.1875 0.203125 0.6875 0.203125q0.328125 0 0.65625 -0.078125l0 1.46875q-0.640625 0.1875 -1.25 0.1875q-2.1875 0 -2.1875 -2.421875l0 -4.78125l-1.390625 0l0 -1.40625l1.390625 0l0 -2.0625l1.90625 0zm6.6640625 10.671875q-1.8125 0 -2.9375 -1.140625q-1.109375 -1.140625 -1.109375 -3.03125l0 -0.234375q0 -1.265625 0.484375 -2.25q0.484375 -1.0 1.359375 -1.546875q0.890625 -0.5625 1.984375 -0.5625q1.71875 0 2.65625 1.109375q0.953125 1.09375 0.953125 3.109375l0 0.765625l-5.53125 0q0.09375 1.046875 0.703125 1.65625q0.609375 0.609375 1.546875 0.609375q1.296875 0 2.125 -1.0625l1.015625 0.984375q-0.5 0.75 -1.359375 1.171875q-0.84375 0.421875 -1.890625 0.421875zm-0.234375 -7.25q-0.78125 0 -1.265625 0.546875q-0.46875 0.546875 -0.609375 1.53125l3.625 0l0 -0.140625q-0.0625 -0.953125 -0.515625 -1.4375q-0.4375 -0.5 -1.234375 -0.5zm6.8515625 -1.359375l0.0625 0.96875q0.9375 -1.125 2.453125 -1.125q2.640625 0 2.6875 3.015625l0 5.59375l-1.890625 0l0 -5.484375q0 -0.796875 -0.359375 -1.1875q-0.34375 -0.390625 -1.125 -0.390625q-1.15625 0 -1.71875 1.046875l0 6.015625l-1.890625 0l0 -8.453125l1.78125 0zm9.1640625 8.453125l-1.90625 0l0 -8.453125l1.90625 0l0 8.453125zm-2.015625 -10.65625q0 -0.4375 0.265625 -0.71875q0.28125 -0.296875 0.796875 -0.296875q0.515625 0 0.796875 0.296875q0.28125 0.28125 0.28125 0.71875q0 0.4375 -0.28125 0.71875q-0.28125 0.28125 -0.796875 0.28125q-0.515625 0 -0.796875 -0.28125q-0.265625 -0.28125 -0.265625 -0.71875zm3.7265625 6.359375q0 -1.953125 0.90625 -3.125q0.90625 -1.1875 2.421875 -1.1875q1.34375 0 2.171875 0.9375l0 -4.328125l1.90625 0l0 12.0l-1.71875 0l-0.09375 -0.875q-0.859375 1.03125 -2.28125 1.03125q-1.484375 0 -2.40625 -1.1875q-0.90625 -1.203125 -0.90625 -3.265625zm1.890625 0.171875q0 1.28125 0.5 2.015625q0.5 0.71875 1.40625 0.71875q1.171875 0 1.703125 -1.046875l0 -3.609375q-0.515625 -1.015625 -1.6875 -1.015625q-0.921875 0 -1.421875 0.734375q-0.5 0.734375 -0.5 2.203125zm7.140625 -0.1875q0 -1.234375 0.484375 -2.234375q0.5 -1.0 1.390625 -1.53125q0.890625 -0.53125 2.046875 -0.53125q1.703125 0 2.765625 1.109375q1.078125 1.09375 1.15625 2.90625l0.015625 0.453125q0 1.25 -0.484375 2.234375q-0.484375 0.984375 -1.375 1.53125q-0.890625 0.53125 -2.0625 0.53125q-1.796875 0 -2.875 -1.1875q-1.0625 -1.203125 -1.0625 -3.1875l0 -0.09375zm1.890625 0.171875q0 1.296875 0.53125 2.046875q0.546875 0.734375 1.5 0.734375q0.96875 0 1.5 -0.75q0.546875 -0.75 0.546875 -2.203125q0 -1.28125 -0.5625 -2.03125q-0.546875 -0.75 -1.484375 -0.75q-0.9375 0 -1.484375 0.75q-0.546875 0.734375 -0.546875 2.203125zm11.203125 -0.15625q0 -1.953125 0.90625 -3.125q0.90625 -1.1875 2.421875 -1.1875q1.34375 0 2.171875 0.9375l0 -4.328125l1.90625 0l0 12.0l-1.71875 0l-0.09375 -0.875q-0.859375 1.03125 -2.28125 1.03125q-1.484375 0 -2.40625 -1.1875q-0.90625 -1.203125 -0.90625 -3.265625zm1.890625 0.171875q0 1.28125 0.5 2.015625q0.5 0.71875 1.40625 0.71875q1.171875 0 1.703125 -1.046875l0 -3.609375q-0.515625 -1.015625 -1.6875 -1.015625q-0.921875 0 -1.421875 0.734375q-0.5 0.734375 -0.5 2.203125zm11.21875 4.28125q-1.8125 0 -2.9375 -1.140625q-1.109375 -1.140625 -1.109375 -3.03125l0 -0.234375q0 -1.265625 0.484375 -2.25q0.484375 -1.0 1.359375 -1.546875q0.890625 -0.5625 1.984375 -0.5625q1.71875 0 2.65625 1.109375q0.953125 1.09375 0.953125 3.109375l0 0.765625l-5.53125 0q0.09375 1.046875 0.703125 1.65625q0.609375 0.609375 1.546875 0.609375q1.296875 0 2.125 -1.0625l1.015625 0.984375q-0.5 0.75 -1.359375 1.171875q-0.84375 0.421875 -1.890625 0.421875zm-0.234375 -7.25q-0.78125 0 -1.265625 0.546875q-0.46875 0.546875 -0.609375 1.53125l3.625 0l0 -0.140625q-0.0625 -0.953125 -0.515625 -1.4375q-0.4375 -0.5 -1.234375 -0.5zm8.7265625 2.78125q0 -1.234375 0.484375 -2.234375q0.5 -1.0 1.390625 -1.53125q0.890625 -0.53125 2.046875 -0.53125q1.703125 0 2.765625 1.109375q1.078125 1.09375 1.15625 2.90625l0.015625 0.453125q0 1.25 -0.484375 2.234375q-0.484375 0.984375 -1.375 1.53125q-0.890625 0.53125 -2.0625 0.53125q-1.796875 0 -2.875 -1.1875q-1.0625 -1.203125 -1.0625 -3.1875l0 -0.09375zm1.890625 0.171875q0 1.296875 0.53125 2.046875q0.546875 0.734375 1.5 0.734375q0.96875 0 1.5 -0.75q0.546875 -0.75 0.546875 -2.203125q0 -1.28125 -0.5625 -2.03125q-0.546875 -0.75 -1.484375 -0.75q-0.9375 0 -1.484375 0.75q-0.546875 0.734375 -0.546875 2.203125zm7.21875 -0.15625q0 -1.953125 0.90625 -3.125q0.90625 -1.1875 2.421875 -1.1875q1.34375 0 2.171875 0.9375l0 -4.328125l1.90625 0l0 12.0l-1.71875 0l-0.09375 -0.875q-0.859375 1.03125 -2.28125 1.03125q-1.484375 0 -2.40625 -1.1875q-0.90625 -1.203125 -0.90625 -3.265625zm1.890625 0.171875q0 1.28125 0.5 2.015625q0.5 0.71875 1.40625 0.71875q1.171875 0 1.703125 -1.046875l0 -3.609375q-0.515625 -1.015625 -1.6875 -1.015625q-0.921875 0 -1.421875 0.734375q-0.5 0.734375 -0.5 2.203125zm9.515625 4.125l-1.90625 0l0 -8.453125l1.90625 0l0 8.453125zm-2.015625 -10.65625q0 -0.4375 0.265625 -0.71875q0.28125 -0.296875 0.796875 -0.296875q0.515625 0 0.796875 0.296875q0.28125 0.28125 0.28125 0.71875q0 0.4375 -0.28125 0.71875q-0.28125 0.28125 -0.796875 0.28125q-0.515625 0 -0.796875 -0.28125q-0.265625 -0.28125 -0.265625 -0.71875zm3.7265625 6.34375q0 -1.234375 0.484375 -2.234375q0.5 -1.0 1.390625 -1.53125q0.890625 -0.53125 2.046875 -0.53125q1.703125 0 2.765625 1.109375q1.078125 1.09375 1.15625 2.90625l0.015625 0.453125q0 1.25 -0.484375 2.234375q-0.484375 0.984375 -1.375 1.53125q-0.890625 0.53125 -2.0625 0.53125q-1.796875 0 -2.875 -1.1875q-1.0625 -1.203125 -1.0625 -3.1875l0 -0.09375zm1.890625 0.171875q0 1.296875 0.53125 2.046875q0.546875 0.734375 1.5 0.734375q0.96875 0 1.5 -0.75q0.546875 -0.75 0.546875 -2.203125q0 -1.28125 -0.5625 -2.03125q-0.546875 -0.75 -1.484375 -0.75q-0.9375 0 -1.484375 0.75q-0.546875 0.734375 -0.546875 2.203125z" fill-rule="nonzero"/><path fill="#cfe2f3" d="m199.81848 226.22202l0 0c0 -7.9842224 7.2409973 -14.456696 16.173233 -14.456696l0 0c8.93222 0 16.173218 6.472473 16.173218 14.456696l0 0c0 7.984207 -7.2409973 14.45668 -16.173218 14.45668l0 0c-8.932236 0 -16.173233 -6.472473 -16.173233 -14.45668z" fill-rule="evenodd"/><path fill="#000000" fill-opacity="0.0" d="m215.99171 211.76532l0 28.913376m-16.173233 -14.45668l32.34645 0" fill-rule="evenodd"/><path fill="#000000" fill-opacity="0.0" d="m199.81848 226.22202l0 0c0 -7.9842224 7.2409973 -14.456696 16.173233 -14.456696l0 0c8.93222 0 16.173218 6.472473 16.173218 14.456696l0 0c0 7.984207 -7.2409973 14.45668 -16.173218 14.45668l0 0c-8.932236 0 -16.173233 -6.472473 -16.173233 -14.45668z" fill-rule="evenodd"/><path stroke="#999999" stroke-width="1.0" stroke-linejoin="round" stroke-linecap="butt" d="m215.99171 211.76532l0 28.913376m-16.173233 -14.45668l32.34645 0" fill-rule="evenodd"/><path stroke="#999999" stroke-width="1.0" stroke-linejoin="round" stroke-linecap="butt" d="m199.81848 226.22202l0 0c0 -7.9842224 7.2409973 -14.456696 16.173233 -14.456696l0 0c8.93222 0 16.173218 6.472473 16.173218 14.456696l0 0c0 7.984207 -7.2409973 14.45668 -16.173218 14.45668l0 0c-8.932236 0 -16.173233 -6.472473 -16.173233 -14.45668z" fill-rule="evenodd"/><path fill="#fce5cd" d="m557.0064 223.72661l299.937 0l0 61.259842l-299.937 0z" fill-rule="evenodd"/><path stroke="#999999" stroke-width="1.0" stroke-linejoin="round" stroke-linecap="butt" d="m557.0064 223.72661l299.937 0l0 61.259842l-299.937 0z" fill-rule="evenodd"/><path fill="#000000" d="m575.3814 250.43529l-3.546875 0l0 9.781235l-1.953125 0l0 -9.781235l-3.515625 0l0 -1.59375l9.015625 0l0 1.59375zm3.3359375 9.781235l-1.90625 0l0 -8.45311l1.90625 0l0 8.45311zm-2.015625 -10.656235q0 -0.4375 0.265625 -0.71875q0.28125 -0.296875 0.796875 -0.296875q0.515625 0 0.796875 0.296875q0.28125 0.28125 0.28125 0.71875q0 0.4375 -0.28125 0.71875q-0.28125 0.28125 -0.796875 0.28125q-0.515625 0 -0.796875 -0.28125q-0.265625 -0.28125 -0.265625 -0.71875zm11.4765625 6.5156097q0 1.953125 -0.890625 3.125q-0.890625 1.171875 -2.390625 1.171875q-1.390625 0 -2.21875 -0.921875l0 4.015625l-1.90625 0l0 -11.70311l1.75 0l0.078125 0.859375q0.84375 -1.015625 2.28125 -1.015625q1.546875 0 2.421875 1.15625q0.875 1.140625 0.875 3.1875l0 0.12498474zm-1.890625 -0.17185974q0 -1.265625 -0.5 -2.0q-0.5 -0.75 -1.4375 -0.75q-1.171875 0 -1.671875 0.96875l0 3.7499847q0.515625 0.984375 1.6875 0.984375q0.90625 0 1.40625 -0.734375q0.515625 -0.734375 0.515625 -2.2187347zm3.1484375 0q0 -1.234375 0.484375 -2.234375q0.5 -1.0 1.390625 -1.53125q0.890625 -0.53125 2.046875 -0.53125q1.703125 0 2.765625 1.109375q1.078125 1.09375 1.15625 2.90625l0.015625 0.45310974q0 1.25 -0.484375 2.234375q-0.484375 0.984375 -1.375 1.53125q-0.890625 0.53125 -2.0625 0.53125q-1.796875 0 -2.875 -1.1875q-1.0625 -1.203125 -1.0625 -3.1874847l0 -0.09375zm1.890625 0.17185974q0 1.296875 0.53125 2.046875q0.546875 0.734375 1.5 0.734375q0.96875 0 1.5 -0.75q0.546875 -0.75 0.546875 -2.2031097q0 -1.28125 -0.5625 -2.03125q-0.546875 -0.75 -1.484375 -0.75q-0.9375 0 -1.484375 0.75q-0.546875 0.734375 -0.546875 2.2031097zm11.203125 -0.15623474q0 -1.953125 0.90625 -3.125q0.90625 -1.1875 2.421875 -1.1875q1.34375 0 2.171875 0.9375l0 -4.328125l1.90625 0l0 11.999985l-1.71875 0l-0.09375 -0.875q-0.859375 1.03125 -2.28125 1.03125q-1.484375 0 -2.40625 -1.1875q-0.90625 -1.203125 -0.90625 -3.2656097zm1.890625 0.17185974q0 1.28125 0.5 2.015625q0.5 0.71875 1.40625 0.71875q1.171875 0 1.703125 -1.046875l0 -3.6093597q-0.515625 -1.015625 -1.6875 -1.015625q-0.921875 0 -1.421875 0.734375q-0.5 0.734375 -0.5 2.2031097zm11.21875 4.28125q-1.8125 0 -2.9375 -1.140625q-1.109375 -1.140625 -1.109375 -3.03125l0 -0.23435974q0 -1.265625 0.484375 -2.25q0.484375 -1.0 1.359375 -1.546875q0.890625 -0.5625 1.984375 -0.5625q1.71875 0 2.65625 1.109375q0.953125 1.09375 0.953125 3.109375l0 0.76560974l-5.53125 0q0.09375 1.046875 0.703125 1.65625q0.609375 0.609375 1.546875 0.609375q1.296875 0 2.125 -1.0625l1.015625 0.984375q-0.5 0.75 -1.359375 1.171875q-0.84375 0.421875 -1.890625 0.421875zm-0.234375 -7.2499847q-0.78125 0 -1.265625 0.546875q-0.46875 0.546875 -0.609375 1.53125l3.625 0l0 -0.140625q-0.0625 -0.953125 -0.515625 -1.4375q-0.4375 -0.5 -1.234375 -0.5zm12.5546875 5.7343597q0.703125 0 1.171875 -0.40625q0.46875 -0.421875 0.5 -1.03125l1.796875 0q-0.03125 0.78125 -0.5 1.46875q-0.453125 0.6875 -1.25 1.09375q-0.78125 0.390625 -1.703125 0.390625q-1.765625 0 -2.8125 -1.140625q-1.03125 -1.15625 -1.03125 -3.1875l0 -0.18748474q0 -1.9375 1.03125 -3.09375q1.03125 -1.15625 2.8125 -1.15625q1.5 0 2.453125 0.875q0.953125 0.875 1.0 2.3125l-1.796875 0q-0.03125 -0.734375 -0.5 -1.203125q-0.453125 -0.46875 -1.171875 -0.46875q-0.921875 0 -1.421875 0.671875q-0.5 0.671875 -0.515625 2.03125l0 0.29685974q0 1.375 0.5 2.0625q0.5 0.671875 1.4375 0.671875zm4.546875 -2.9531097q0 -1.234375 0.484375 -2.234375q0.5 -1.0 1.390625 -1.53125q0.890625 -0.53125 2.046875 -0.53125q1.703125 0 2.765625 1.109375q1.078125 1.09375 1.15625 2.90625l0.015625 0.45310974q0 1.25 -0.484375 2.234375q-0.484375 0.984375 -1.375 1.53125q-0.890625 0.53125 -2.0625 0.53125q-1.796875 0 -2.875 -1.1875q-1.0625 -1.203125 -1.0625 -3.1874847l0 -0.09375zm1.890625 0.17185974q0 1.296875 0.53125 2.046875q0.546875 0.734375 1.5 0.734375q0.96875 0 1.5 -0.75q0.546875 -0.75 0.546875 -2.2031097q0 -1.28125 -0.5625 -2.03125q-0.546875 -0.75 -1.484375 -0.75q-0.9375 0 -1.484375 0.75q-0.546875 0.734375 -0.546875 2.2031097zm9.359375 -4.3124847l0.046875 0.875q0.890625 -1.03125 2.4375 -1.03125q1.703125 0 2.328125 1.296875q0.921875 -1.296875 2.59375 -1.296875q1.390625 0 2.078125 0.78125q0.6875 0.765625 0.703125 2.265625l0 5.5624847l-1.90625 0l0 -5.4999847q0 -0.8125 -0.359375 -1.1875q-0.34375 -0.375 -1.15625 -0.375q-0.640625 0 -1.0625 0.359375q-0.40625 0.34375 -0.5625 0.90625l0 5.7968597l-1.890625 0l0 -5.5624847q-0.046875 -1.5 -1.53125 -1.5q-1.140625 0 -1.609375 0.9375l0 6.1249847l-1.90625 0l0 -8.45311l1.796875 0zm17.25 7.6249847q-0.828125 0.984375 -2.375 0.984375q-1.375 0 -2.078125 -0.796875q-0.703125 -0.8125 -0.703125 -2.34375l0 -5.4687347l1.890625 0l0 5.4531097q0 1.609375 1.34375 1.609375q1.375 0 1.859375 -1.0l0 -6.0624847l1.90625 0l0 8.45311l-1.796875 0l-0.046875 -0.828125zm5.53125 -7.6249847l0.0625 0.96875q0.9375 -1.125 2.453125 -1.125q2.640625 0 2.6875 3.015625l0 5.5937347l-1.890625 0l0 -5.4843597q0 -0.796875 -0.359375 -1.1875q-0.34375 -0.390625 -1.125 -0.390625q-1.15625 0 -1.71875 1.046875l0 6.0156097l-1.890625 0l0 -8.45311l1.78125 0zm9.1640625 8.45311l-1.90625 0l0 -8.45311l1.90625 0l0 8.45311zm-2.015625 -10.656235q0 -0.4375 0.265625 -0.71875q0.28125 -0.296875 0.796875 -0.296875q0.515625 0 0.796875 0.296875q0.28125 0.28125 0.28125 0.71875q0 0.4375 -0.28125 0.71875q-0.28125 0.28125 -0.796875 0.28125q-0.515625 0 -0.796875 -0.28125q-0.265625 -0.28125 -0.265625 -0.71875zm7.5546875 9.29686q0.703125 0 1.171875 -0.40625q0.46875 -0.421875 0.5 -1.03125l1.796875 0q-0.03125 0.78125 -0.5 1.46875q-0.453125 0.6875 -1.25 1.09375q-0.78125 0.390625 -1.703125 0.390625q-1.765625 0 -2.8125 -1.140625q-1.03125 -1.15625 -1.03125 -3.1875l0 -0.18748474q0 -1.9375 1.03125 -3.09375q1.03125 -1.15625 2.8125 -1.15625q1.5 0 2.453125 0.875q0.953125 0.875 1.0 2.3125l-1.796875 0q-0.03125 -0.734375 -0.5 -1.203125q-0.453125 -0.46875 -1.171875 -0.46875q-0.921875 0 -1.421875 0.671875q-0.5 0.671875 -0.515625 2.03125l0 0.29685974q0 1.375 0.5 2.0625q0.5 0.671875 1.4375 0.671875zm9.953125 1.359375q-0.125 -0.25 -0.21875 -0.796875q-0.90625 0.953125 -2.21875 0.953125q-1.28125 0 -2.09375 -0.71875q-0.796875 -0.734375 -0.796875 -1.8125q0 -1.34375 1.0 -2.0624847q1.015625 -0.734375 2.875 -0.734375l1.171875 0l0 -0.546875q0 -0.65625 -0.375 -1.046875q-0.359375 -0.40625 -1.109375 -0.40625q-0.65625 0 -1.078125 0.328125q-0.40625 0.328125 -0.40625 0.828125l-1.890625 0q0 -0.703125 0.453125 -1.296875q0.46875 -0.609375 1.25 -0.953125q0.796875 -0.34375 1.78125 -0.34375q1.484375 0 2.359375 0.75q0.890625 0.734375 0.90625 2.09375l0 3.8124847q0 1.140625 0.328125 1.8125l0 0.140625l-1.9375 0zm-2.09375 -1.375q0.5625 0 1.0625 -0.265625q0.5 -0.28125 0.75 -0.734375l0 -1.59375l-1.03125 0q-1.046875 0 -1.578125 0.375q-0.53125 0.359375 -0.53125 1.03125q0 0.546875 0.359375 0.875q0.359375 0.3125 0.96875 0.3125zm9.171875 0.015625q0.703125 0 1.171875 -0.40625q0.46875 -0.421875 0.5 -1.03125l1.796875 0q-0.03125 0.78125 -0.5 1.46875q-0.453125 0.6875 -1.25 1.09375q-0.78125 0.390625 -1.703125 0.390625q-1.765625 0 -2.8125 -1.140625q-1.03125 -1.15625 -1.03125 -3.1875l0 -0.18748474q0 -1.9375 1.03125 -3.09375q1.03125 -1.15625 2.8125 -1.15625q1.5 0 2.453125 0.875q0.953125 0.875 1.0 2.3125l-1.796875 0q-0.03125 -0.734375 -0.5 -1.203125q-0.453125 -0.46875 -1.171875 -0.46875q-0.921875 0 -1.421875 0.671875q-0.5 0.671875 -0.515625 2.03125l0 0.29685974q0 1.375 0.5 2.0625q0.5 0.671875 1.4375 0.671875zm6.921875 1.359375l-1.90625 0l0 -8.45311l1.90625 0l0 8.45311zm-2.015625 -10.656235q0 -0.4375 0.265625 -0.71875q0.28125 -0.296875 0.796875 -0.296875q0.515625 0 0.796875 0.296875q0.28125 0.28125 0.28125 0.71875q0 0.4375 -0.28125 0.71875q-0.28125 0.28125 -0.796875 0.28125q-0.515625 0 -0.796875 -0.28125q-0.265625 -0.28125 -0.265625 -0.71875zm3.7265625 6.34375q0 -1.234375 0.484375 -2.234375q0.5 -1.0 1.390625 -1.53125q0.890625 -0.53125 2.046875 -0.53125q1.703125 0 2.765625 1.109375q1.078125 1.09375 1.15625 2.90625l0.015625 0.45310974q0 1.25 -0.484375 2.234375q-0.484375 0.984375 -1.375 1.53125q-0.890625 0.53125 -2.0625 0.53125q-1.796875 0 -2.875 -1.1875q-1.0625 -1.203125 -1.0625 -3.1874847l0 -0.09375zm1.890625 0.17185974q0 1.296875 0.53125 2.046875q0.546875 0.734375 1.5 0.734375q0.96875 0 1.5 -0.75q0.546875 -0.75 0.546875 -2.2031097q0 -1.28125 -0.5625 -2.03125q-0.546875 -0.75 -1.484375 -0.75q-0.9375 0 -1.484375 0.75q-0.546875 0.734375 -0.546875 2.2031097zm2.5625 -7.8593597l2.15625 0l-2.15625 2.359375l-1.53125 0l1.53125 -2.359375zm6.765625 3.546875l0.0625 0.96875q0.9375 -1.125 2.453125 -1.125q2.640625 0 2.6875 3.015625l0 5.5937347l-1.890625 0l0 -5.4843597q0 -0.796875 -0.359375 -1.1875q-0.34375 -0.390625 -1.125 -0.390625q-1.15625 0 -1.71875 1.046875l0 6.0156097l-1.890625 0l0 -8.45311l1.78125 0z" fill-rule="nonzero"/><path fill="#fce5cd" d="m557.0064 292.63965l299.937 0l0 61.259857l-299.937 0z" fill-rule="evenodd"/><path stroke="#999999" stroke-width="1.0" stroke-linejoin="round" stroke-linecap="butt" d="m557.0064 292.63965l299.937 0l0 61.259857l-299.937 0z" fill-rule="evenodd"/><path fill="#000000" d="m569.2564 329.12958l-1.96875 0l0 -11.375l1.96875 0l0 11.375zm4.0 -8.453125l0.0625 0.96875q0.9375 -1.125 2.453125 -1.125q2.640625 0 2.6875 3.015625l0 5.59375l-1.890625 0l0 -5.484375q0 -0.796875 -0.359375 -1.1875q-0.34375 -0.390625 -1.125 -0.390625q-1.15625 0 -1.71875 1.046875l0 6.015625l-1.890625 0l0 -8.453125l1.78125 0zm9.5234375 -2.0625l0 2.0625l1.484375 0l0 1.40625l-1.484375 0l0 4.71875q0 0.484375 0.1875 0.703125q0.1875 0.203125 0.6875 0.203125q0.328125 0 0.65625 -0.078125l0 1.46875q-0.640625 0.1875 -1.25 0.1875q-2.1875 0 -2.1875 -2.421875l0 -4.78125l-1.390625 0l0 -1.40625l1.390625 0l0 -2.0625l1.90625 0zm6.6640625 10.671875q-1.8125 0 -2.9375 -1.140625q-1.109375 -1.140625 -1.109375 -3.03125l0 -0.234375q0 -1.265625 0.484375 -2.25q0.484375 -1.0 1.359375 -1.546875q0.890625 -0.5625 1.984375 -0.5625q1.71875 0 2.65625 1.109375q0.953125 1.09375 0.953125 3.109375l0 0.765625l-5.53125 0q0.09375 1.046875 0.703125 1.65625q0.609375 0.609375 1.546875 0.609375q1.296875 0 2.125 -1.0625l1.015625 0.984375q-0.5 0.75 -1.359375 1.171875q-0.84375 0.421875 -1.890625 0.421875zm-0.234375 -7.25q-0.78125 0 -1.265625 0.546875q-0.46875 0.546875 -0.609375 1.53125l3.625 0l0 -0.140625q-0.0625 -0.953125 -0.515625 -1.4375q-0.4375 -0.5 -1.234375 -0.5zm6.8515625 -1.359375l0.0625 0.96875q0.9375 -1.125 2.453125 -1.125q2.640625 0 2.6875 3.015625l0 5.59375l-1.890625 0l0 -5.484375q0 -0.796875 -0.359375 -1.1875q-0.34375 -0.390625 -1.125 -0.390625q-1.15625 0 -1.71875 1.046875l0 6.015625l-1.890625 0l0 -8.453125l1.78125 0zm10.6171875 7.09375q0.703125 0 1.171875 -0.40625q0.46875 -0.421875 0.5 -1.03125l1.796875 0q-0.03125 0.78125 -0.5 1.46875q-0.453125 0.6875 -1.25 1.09375q-0.78125 0.390625 -1.703125 0.390625q-1.765625 0 -2.8125 -1.140625q-1.03125 -1.15625 -1.03125 -3.1875l0 -0.1875q0 -1.9375 1.03125 -3.09375q1.03125 -1.15625 2.8125 -1.15625q1.5 0 2.453125 0.875q0.953125 0.875 1.0 2.3125l-1.796875 0q-0.03125 -0.734375 -0.5 -1.203125q-0.453125 -0.46875 -1.171875 -0.46875q-0.921875 0 -1.421875 0.671875q-0.5 0.671875 -0.515625 2.03125l0 0.296875q0 1.375 0.5 2.0625q0.5 0.671875 1.4375 0.671875zm6.921875 1.359375l-1.90625 0l0 -8.453125l1.90625 0l0 8.453125zm-2.015625 -10.65625q0 -0.4375 0.265625 -0.71875q0.28125 -0.296875 0.796875 -0.296875q0.515625 0 0.796875 0.296875q0.28125 0.28125 0.28125 0.71875q0 0.4375 -0.28125 0.71875q-0.28125 0.28125 -0.796875 0.28125q-0.515625 0 -0.796875 -0.28125q-0.265625 -0.28125 -0.265625 -0.71875zm3.7265625 6.34375q0 -1.234375 0.484375 -2.234375q0.5 -1.0 1.390625 -1.53125q0.890625 -0.53125 2.046875 -0.53125q1.703125 0 2.765625 1.109375q1.078125 1.09375 1.15625 2.90625l0.015625 0.453125q0 1.25 -0.484375 2.234375q-0.484375 0.984375 -1.375 1.53125q-0.890625 0.53125 -2.0625 0.53125q-1.796875 0 -2.875 -1.1875q-1.0625 -1.203125 -1.0625 -3.1875l0 -0.09375zm1.890625 0.171875q0 1.296875 0.53125 2.046875q0.546875 0.734375 1.5 0.734375q0.96875 0 1.5 -0.75q0.546875 -0.75 0.546875 -2.203125q0 -1.28125 -0.5625 -2.03125q-0.546875 -0.75 -1.484375 -0.75q-0.9375 0 -1.484375 0.75q-0.546875 0.734375 -0.546875 2.203125zm2.5625 -7.859375l2.15625 0l-2.15625 2.359375l-1.53125 0l1.53125 -2.359375zm6.765625 3.546875l0.0625 0.96875q0.9375 -1.125 2.453125 -1.125q2.640625 0 2.6875 3.015625l0 5.59375l-1.890625 0l0 -5.484375q0 -0.796875 -0.359375 -1.1875q-0.34375 -0.390625 -1.125 -0.390625q-1.15625 0 -1.71875 1.046875l0 6.015625l-1.890625 0l0 -8.453125l1.78125 0z" fill-rule="nonzero"/><path fill="#fce5cd" d="m557.0064 361.5527l299.937 0l0 61.259827l-299.937 0z" fill-rule="evenodd"/><path stroke="#999999" stroke-width="1.0" stroke-linejoin="round" stroke-linecap="butt" d="m557.0064 361.5527l299.937 0l0 61.259827l-299.937 0z" fill-rule="evenodd"/><path fill="#000000" d="m576.2408 392.652q0 1.671875 -0.578125 2.9375q-0.578125 1.25 -1.65625 1.9375q-1.0625 0.671875 -2.46875 0.671875q-1.375 0 -2.46875 -0.671875q-1.078125 -0.6875 -1.671875 -1.9375q-0.578125 -1.25 -0.59375 -2.875l0 -0.640625q0 -1.671875 0.59375 -2.9375q0.59375 -1.28125 1.65625 -1.953125q1.078125 -0.671875 2.46875 -0.671875q1.390625 0 2.46875 0.671875q1.078125 0.65625 1.65625 1.921875q0.59375 1.25 0.59375 2.90625l0 0.640625zm-1.96875 -0.59375q0 -1.890625 -0.71875 -2.890625q-0.71875 -1.015625 -2.03125 -1.015625q-1.28125 0 -2.0 1.0q-0.71875 1.0 -0.734375 2.84375l0 0.65625q0 1.875 0.71875 2.90625q0.734375 1.015625 2.03125 1.015625q1.3125 0 2.015625 -1.0q0.71875 -1.0 0.71875 -2.921875l0 -0.59375zm11.171875 1.84375q0 1.96875 -0.875 3.140625q-0.875 1.15625 -2.421875 1.15625q-1.484375 0 -2.3125 -1.078125l-0.09375 0.921875l-1.71875 0l0 -12.0l1.90625 0l0 4.359375q0.8125 -0.96875 2.203125 -0.96875q1.546875 0 2.421875 1.15625q0.890625 1.140625 0.890625 3.203125l0 0.109375zm-1.890625 -0.171875q0 -1.375 -0.484375 -2.0625q-0.484375 -0.6875 -1.40625 -0.6875q-1.234375 0 -1.734375 1.078125l0 3.484375q0.5 1.109375 1.75 1.109375q0.890625 0 1.375 -0.65625q0.484375 -0.671875 0.5 -2.015625l0 -0.25zm5.4609375 -4.140625l0 9.203125q0 1.296875 -0.640625 1.984375q-0.640625 0.6875 -1.890625 0.6875q-0.53125 0 -1.015625 -0.140625l0 -1.5q0.296875 0.078125 0.6875 0.078125q0.9375 0 0.96875 -1.03125l0 -9.28125l1.890625 0zm-2.0625 -2.203125q0 -0.4375 0.28125 -0.71875q0.28125 -0.296875 0.796875 -0.296875q0.515625 0 0.796875 0.296875q0.28125 0.28125 0.28125 0.71875q0 0.4375 -0.28125 0.71875q-0.28125 0.28125 -0.796875 0.28125q-0.515625 0 -0.796875 -0.28125q-0.28125 -0.28125 -0.28125 -0.71875zm7.8203125 10.8125q-1.8125 0 -2.9375 -1.140625q-1.109375 -1.140625 -1.109375 -3.03125l0 -0.234375q0 -1.265625 0.484375 -2.25q0.484375 -1.0 1.359375 -1.546875q0.890625 -0.5625 1.984375 -0.5625q1.71875 0 2.65625 1.109375q0.953125 1.09375 0.953125 3.109375l0 0.765625l-5.53125 0q0.09375 1.046875 0.703125 1.65625q0.609375 0.609375 1.546875 0.609375q1.296875 0 2.125 -1.0625l1.015625 0.984375q-0.5 0.75 -1.359375 1.171875q-0.84375 0.421875 -1.890625 0.421875zm-0.234375 -7.25q-0.78125 0 -1.265625 0.546875q-0.46875 0.546875 -0.609375 1.53125l3.625 0l0 -0.140625q-0.0625 -0.953125 -0.515625 -1.4375q-0.4375 -0.5 -1.234375 -0.5zm7.4765625 -3.421875l0 2.0625l1.484375 0l0 1.40625l-1.484375 0l0 4.71875q0 0.484375 0.1875 0.703125q0.1875 0.203125 0.6875 0.203125q0.328125 0 0.65625 -0.078125l0 1.46875q-0.640625 0.1875 -1.25 0.1875q-2.1875 0 -2.1875 -2.421875l0 -4.78125l-1.390625 0l0 -1.40625l1.390625 0l0 -2.0625l1.90625 0zm4.9609375 10.515625l-1.90625 0l0 -8.453125l1.90625 0l0 8.453125zm-2.015625 -10.65625q0 -0.4375 0.265625 -0.71875q0.28125 -0.296875 0.796875 -0.296875q0.515625 0 0.796875 0.296875q0.28125 0.28125 0.28125 0.71875q0 0.4375 -0.28125 0.71875q-0.28125 0.28125 -0.796875 0.28125q-0.515625 0 -0.796875 -0.28125q-0.265625 -0.28125 -0.265625 -0.71875zm7.0546875 8.25l1.796875 -6.046875l1.953125 0l-2.921875 8.453125l-1.65625 0l-2.953125 -8.453125l1.96875 0l1.8125 6.046875zm4.46875 -1.90625q0 -1.234375 0.484375 -2.234375q0.5 -1.0 1.390625 -1.53125q0.890625 -0.53125 2.046875 -0.53125q1.703125 0 2.765625 1.109375q1.078125 1.09375 1.15625 2.90625l0.015625 0.453125q0 1.25 -0.484375 2.234375q-0.484375 0.984375 -1.375 1.53125q-0.890625 0.53125 -2.0625 0.53125q-1.796875 0 -2.875 -1.1875q-1.0625 -1.203125 -1.0625 -3.1875l0 -0.09375zm1.890625 0.171875q0 1.296875 0.53125 2.046875q0.546875 0.734375 1.5 0.734375q0.96875 0 1.5 -0.75q0.546875 -0.75 0.546875 -2.203125q0 -1.28125 -0.5625 -2.03125q-0.546875 -0.75 -1.484375 -0.75q-0.9375 0 -1.484375 0.75q-0.546875 0.734375 -0.546875 2.203125z" fill-rule="nonzero"/><path fill="#fce5cd" d="m557.0064 430.46576l299.937 0l0 61.259827l-299.937 0z" fill-rule="evenodd"/><path stroke="#999999" stroke-width="1.0" stroke-linejoin="round" stroke-linecap="butt" d="m557.0064 430.46576l299.937 0l0 61.259827l-299.937 0z" fill-rule="evenodd"/><path fill="#000000" d="m573.72516 462.12753l-4.578125 0l0 4.828125l-1.984375 0l0 -11.375l7.234375 0l0 1.59375l-5.25 0l0 3.375l4.578125 0l0 1.578125zm6.8359375 4.828125q-0.125 -0.25 -0.21875 -0.796875q-0.90625 0.953125 -2.21875 0.953125q-1.28125 0 -2.09375 -0.71875q-0.796875 -0.734375 -0.796875 -1.8125q0 -1.34375 1.0 -2.0625q1.015625 -0.734375 2.875 -0.734375l1.171875 0l0 -0.546875q0 -0.65625 -0.375 -1.046875q-0.359375 -0.40625 -1.109375 -0.40625q-0.65625 0 -1.078125 0.328125q-0.40625 0.328125 -0.40625 0.828125l-1.890625 0q0 -0.703125 0.453125 -1.296875q0.46875 -0.609375 1.25 -0.953125q0.796875 -0.34375 1.78125 -0.34375q1.484375 0 2.359375 0.75q0.890625 0.734375 0.90625 2.09375l0 3.8125q0 1.140625 0.328125 1.8125l0 0.140625l-1.9375 0zm-2.09375 -1.375q0.5625 0 1.0625 -0.265625q0.5 -0.28125 0.75 -0.734375l0 -1.59375l-1.03125 0q-1.046875 0 -1.578125 0.375q-0.53125 0.359375 -0.53125 1.03125q0 0.546875 0.359375 0.875q0.359375 0.3125 0.96875 0.3125zm9.171875 0.015625q0.703125 0 1.171875 -0.40625q0.46875 -0.421875 0.5 -1.03125l1.796875 0q-0.03125 0.78125 -0.5 1.46875q-0.453125 0.6875 -1.25 1.09375q-0.78125 0.390625 -1.703125 0.390625q-1.765625 0 -2.8125 -1.140625q-1.03125 -1.15625 -1.03125 -3.1875l0 -0.1875q0 -1.9375 1.03125 -3.09375q1.03125 -1.15625 2.8125 -1.15625q1.5 0 2.453125 0.875q0.953125 0.875 1.0 2.3125l-1.796875 0q-0.03125 -0.734375 -0.5 -1.203125q-0.453125 -0.46875 -1.171875 -0.46875q-0.921875 0 -1.421875 0.671875q-0.5 0.671875 -0.515625 2.03125l0 0.296875q0 1.375 0.5 2.0625q0.5 0.671875 1.4375 0.671875zm7.28125 -9.15625l0 2.0625l1.484375 0l0 1.40625l-1.484375 0l0 4.71875q0 0.484375 0.1875 0.703125q0.1875 0.203125 0.6875 0.203125q0.328125 0 0.65625 -0.078125l0 1.46875q-0.640625 0.1875 -1.25 0.1875q-2.1875 0 -2.1875 -2.421875l0 -4.78125l-1.390625 0l0 -1.40625l1.390625 0l0 -2.0625l1.90625 0zm2.3515625 6.203125q0 -1.234375 0.484375 -2.234375q0.5 -1.0 1.390625 -1.53125q0.890625 -0.53125 2.046875 -0.53125q1.703125 0 2.765625 1.109375q1.078125 1.09375 1.15625 2.90625l0.015625 0.453125q0 1.25 -0.484375 2.234375q-0.484375 0.984375 -1.375 1.53125q-0.890625 0.53125 -2.0625 0.53125q-1.796875 0 -2.875 -1.1875q-1.0625 -1.203125 -1.0625 -3.1875l0 -0.09375zm1.890625 0.171875q0 1.296875 0.53125 2.046875q0.546875 0.734375 1.5 0.734375q0.96875 0 1.5 -0.75q0.546875 -0.75 0.546875 -2.203125q0 -1.28125 -0.5625 -2.03125q-0.546875 -0.75 -1.484375 -0.75q-0.9375 0 -1.484375 0.75q-0.546875 0.734375 -0.546875 2.203125zm12.0 -2.578125q-0.375 -0.0625 -0.78125 -0.0625q-1.296875 0 -1.75 1.0l0 5.78125l-1.90625 0l0 -8.453125l1.8125 0l0.046875 0.9375q0.6875 -1.09375 1.90625 -1.09375q0.40625 0 0.671875 0.109375l0 1.78125zm4.828125 2.421875q0 -1.953125 0.90625 -3.125q0.90625 -1.1875 2.421875 -1.1875q1.34375 0 2.171875 0.9375l0 -4.328125l1.90625 0l0 12.0l-1.71875 0l-0.09375 -0.875q-0.859375 1.03125 -2.28125 1.03125q-1.484375 0 -2.40625 -1.1875q-0.90625 -1.203125 -0.90625 -3.265625zm1.890625 0.171875q0 1.28125 0.5 2.015625q0.5 0.71875 1.40625 0.71875q1.171875 0 1.703125 -1.046875l0 -3.609375q-0.515625 -1.015625 -1.6875 -1.015625q-0.921875 0 -1.421875 0.734375q-0.5 0.734375 -0.5 2.203125zm11.21875 4.28125q-1.8125 0 -2.9375 -1.140625q-1.109375 -1.140625 -1.109375 -3.03125l0 -0.234375q0 -1.265625 0.484375 -2.25q0.484375 -1.0 1.359375 -1.546875q0.890625 -0.5625 1.984375 -0.5625q1.71875 0 2.65625 1.109375q0.953125 1.09375 0.953125 3.109375l0 0.765625l-5.53125 0q0.09375 1.046875 0.703125 1.65625q0.609375 0.609375 1.546875 0.609375q1.296875 0 2.125 -1.0625l1.015625 0.984375q-0.5 0.75 -1.359375 1.171875q-0.84375 0.421875 -1.890625 0.421875zm-0.234375 -7.25q-0.78125 0 -1.265625 0.546875q-0.46875 0.546875 -0.609375 1.53125l3.625 0l0 -0.140625q-0.0625 -0.953125 -0.515625 -1.4375q-0.4375 -0.5 -1.234375 -0.5zm11.3515625 7.09375l-1.96875 0l0 -11.375l1.96875 0l0 11.375zm1.890625 -4.296875q0 -1.953125 0.90625 -3.125q0.90625 -1.1875 2.421875 -1.1875q1.34375 0 2.171875 0.9375l0 -4.328125l1.90625 0l0 12.0l-1.71875 0l-0.09375 -0.875q-0.859375 1.03125 -2.28125 1.03125q-1.484375 0 -2.40625 -1.1875q-0.90625 -1.203125 -0.90625 -3.265625zm1.890625 0.171875q0 1.28125 0.5 2.015625q0.5 0.71875 1.40625 0.71875q1.171875 0 1.703125 -1.046875l0 -3.609375q-0.515625 -1.015625 -1.6875 -1.015625q-0.921875 0 -1.421875 0.734375q-0.5 0.734375 -0.5 2.203125zm11.21875 4.28125q-1.8125 0 -2.9375 -1.140625q-1.109375 -1.140625 -1.109375 -3.03125l0 -0.234375q0 -1.265625 0.484375 -2.25q0.484375 -1.0 1.359375 -1.546875q0.890625 -0.5625 1.984375 -0.5625q1.71875 0 2.65625 1.109375q0.953125 1.09375 0.953125 3.109375l0 0.765625l-5.53125 0q0.09375 1.046875 0.703125 1.65625q0.609375 0.609375 1.546875 0.609375q1.296875 0 2.125 -1.0625l1.015625 0.984375q-0.5 0.75 -1.359375 1.171875q-0.84375 0.421875 -1.890625 0.421875zm-0.234375 -7.25q-0.78125 0 -1.265625 0.546875q-0.46875 0.546875 -0.609375 1.53125l3.625 0l0 -0.140625q-0.0625 -0.953125 -0.515625 -1.4375q-0.4375 -0.5 -1.234375 -0.5zm6.8515625 -1.359375l0.0625 0.96875q0.9375 -1.125 2.453125 -1.125q2.640625 0 2.6875 3.015625l0 5.59375l-1.890625 0l0 -5.484375q0 -0.796875 -0.359375 -1.1875q-0.34375 -0.390625 -1.125 -0.390625q-1.15625 0 -1.71875 1.046875l0 6.015625l-1.890625 0l0 -8.453125l1.78125 0zm9.5234375 -2.0625l0 2.0625l1.484375 0l0 1.40625l-1.484375 0l0 4.71875q0 0.484375 0.1875 0.703125q0.1875 0.203125 0.6875 0.203125q0.328125 0 0.65625 -0.078125l0 1.46875q-0.640625 0.1875 -1.25 0.1875q-2.1875 0 -2.1875 -2.421875l0 -4.78125l-1.390625 0l0 -1.40625l1.390625 0l0 -2.0625l1.90625 0zm4.9609375 10.515625l-1.90625 0l0 -8.453125l1.90625 0l0 8.453125zm-2.015625 -10.65625q0 -0.4375 0.265625 -0.71875q0.28125 -0.296875 0.796875 -0.296875q0.515625 0 0.796875 0.296875q0.28125 0.28125 0.28125 0.71875q0 0.4375 -0.28125 0.71875q-0.28125 0.28125 -0.796875 0.28125q-0.515625 0 -0.796875 -0.28125q-0.265625 -0.28125 -0.265625 -0.71875zm3.7265625 6.359375q0 -1.953125 0.90625 -3.125q0.90625 -1.1875 2.421875 -1.1875q1.34375 0 2.171875 0.9375l0 -4.328125l1.90625 0l0 12.0l-1.71875 0l-0.09375 -0.875q-0.859375 1.03125 -2.28125 1.03125q-1.484375 0 -2.40625 -1.1875q-0.90625 -1.203125 -0.90625 -3.265625zm1.890625 0.171875q0 1.28125 0.5 2.015625q0.5 0.71875 1.40625 0.71875q1.171875 0 1.703125 -1.046875l0 -3.609375q-0.515625 -1.015625 -1.6875 -1.015625q-0.921875 0 -1.421875 0.734375q-0.5 0.734375 -0.5 2.203125zm12.546875 4.125q-0.125 -0.25 -0.21875 -0.796875q-0.90625 0.953125 -2.21875 0.953125q-1.28125 0 -2.09375 -0.71875q-0.796875 -0.734375 -0.796875 -1.8125q0 -1.34375 1.0 -2.0625q1.015625 -0.734375 2.875 -0.734375l1.171875 0l0 -0.546875q0 -0.65625 -0.375 -1.046875q-0.359375 -0.40625 -1.109375 -0.40625q-0.65625 0 -1.078125 0.328125q-0.40625 0.328125 -0.40625 0.828125l-1.890625 0q0 -0.703125 0.453125 -1.296875q0.46875 -0.609375 1.25 -0.953125q0.796875 -0.34375 1.78125 -0.34375q1.484375 0 2.359375 0.75q0.890625 0.734375 0.90625 2.09375l0 3.8125q0 1.140625 0.328125 1.8125l0 0.140625l-1.9375 0zm-2.09375 -1.375q0.5625 0 1.0625 -0.265625q0.5 -0.28125 0.75 -0.734375l0 -1.59375l-1.03125 0q-1.046875 0 -1.578125 0.375q-0.53125 0.359375 -0.53125 1.03125q0 0.546875 0.359375 0.875q0.359375 0.3125 0.96875 0.3125zm5.34375 -2.921875q0 -1.953125 0.90625 -3.125q0.90625 -1.1875 2.421875 -1.1875q1.34375 0 2.171875 0.9375l0 -4.328125l1.90625 0l0 12.0l-1.71875 0l-0.09375 -0.875q-0.859375 1.03125 -2.28125 1.03125q-1.484375 0 -2.40625 -1.1875q-0.90625 -1.203125 -0.90625 -3.265625zm1.890625 0.171875q0 1.28125 0.5 2.015625q0.5 0.71875 1.40625 0.71875q1.171875 0 1.703125 -1.046875l0 -3.609375q-0.515625 -1.015625 -1.6875 -1.015625q-0.921875 0 -1.421875 0.734375q-0.5 0.734375 -0.5 2.203125z" fill-rule="nonzero"/><path fill="#000000" fill-opacity="0.0" d="m501.2261 359.0228l27.891998 0l0 -104.66142l27.887512 0" fill-rule="evenodd"/><path stroke="#999999" stroke-width="1.0" stroke-linejoin="round" stroke-linecap="butt" d="m501.2261 359.0228l27.891998 0l0 -104.66142l27.887512 0" fill-rule="evenodd"/><path fill="#000000" fill-opacity="0.0" d="m501.2261 359.0228l27.891998 0l0 -35.748016l27.887512 0" fill-rule="evenodd"/><path stroke="#999999" stroke-width="1.0" stroke-linejoin="round" stroke-linecap="butt" d="m501.2261 359.0228l27.891998 0l0 -35.748016l27.887512 0" fill-rule="evenodd"/><path fill="#000000" fill-opacity="0.0" d="m501.2261 359.0228l27.891998 0l0 33.165344l27.887512 0" fill-rule="evenodd"/><path stroke="#999999" stroke-width="1.0" stroke-linejoin="round" stroke-linecap="butt" d="m501.2261 359.0228l27.891998 0l0 33.165344l27.887512 0" fill-rule="evenodd"/><path fill="#000000" fill-opacity="0.0" d="m501.2261 359.0228l27.891998 0l0 102.078735l27.887512 0" fill-rule="evenodd"/><path stroke="#999999" stroke-width="1.0" stroke-linejoin="round" stroke-linecap="butt" d="m501.2261 359.0228l27.891998 0l0 102.078735l27.887512 0" fill-rule="evenodd"/><path fill="#efefef" d="m557.0064 44.88714l299.937 0l0 61.259842l-299.937 0z" fill-rule="evenodd"/><path stroke="#999999" stroke-width="1.0" stroke-linejoin="round" stroke-linecap="butt" d="m557.0064 44.88714l299.937 0l0 61.259842l-299.937 0z" fill-rule="evenodd"/><path fill="#000000" d="m571.35016 76.986435l-2.203125 0l0 4.390625l-1.984375 0l0 -11.375l4.0 0q1.96875 0 3.03125 0.890625q1.078125 0.875 1.078125 2.546875q0 1.140625 -0.546875 1.90625q-0.546875 0.765625 -1.53125 1.1875l2.546875 4.734375l0 0.109375l-2.109375 0l-2.28125 -4.390625zm-2.203125 -1.578125l2.03125 0q1.0 0 1.5625 -0.5q0.5625 -0.515625 0.5625 -1.390625q0 -0.90625 -0.53125 -1.40625q-0.515625 -0.5 -1.546875 -0.515625l-2.078125 0l0 3.8125zm11.546875 6.125q-1.8125 0 -2.9375 -1.140625q-1.109375 -1.140625 -1.109375 -3.03125l0 -0.234375q0 -1.265625 0.484375 -2.25q0.484375 -1.0 1.359375 -1.546875q0.890625 -0.5625 1.984375 -0.5625q1.71875 0 2.65625 1.109375q0.953125 1.09375 0.953125 3.109375l0 0.765625l-5.53125 0q0.09375 1.046875 0.703125 1.65625q0.609375 0.609375 1.546875 0.609375q1.296875 0 2.125 -1.0625l1.015625 0.984375q-0.5 0.75 -1.359375 1.171875q-0.84375 0.421875 -1.890625 0.421875zm-0.234375 -7.25q-0.78125 0 -1.265625 0.546875q-0.46875 0.546875 -0.609375 1.53125l3.625 0l0 -0.140625q-0.0625 -0.953125 -0.515625 -1.4375q-0.4375 -0.5 -1.234375 -0.5zm7.1171875 7.09375l-1.90625 0l0 -12.0l1.90625 0l0 12.0zm5.7890625 0.15625q-1.8125 0 -2.9375 -1.140625q-1.109375 -1.140625 -1.109375 -3.03125l0 -0.234375q0 -1.265625 0.484375 -2.25q0.484375 -1.0 1.359375 -1.546875q0.890625 -0.5625 1.984375 -0.5625q1.71875 0 2.65625 1.109375q0.953125 1.09375 0.953125 3.109375l0 0.765625l-5.53125 0q0.09375 1.046875 0.703125 1.65625q0.609375 0.609375 1.546875 0.609375q1.296875 0 2.125 -1.0625l1.015625 0.984375q-0.5 0.75 -1.359375 1.171875q-0.84375 0.421875 -1.890625 0.421875zm-0.234375 -7.25q-0.78125 0 -1.265625 0.546875q-0.46875 0.546875 -0.609375 1.53125l3.625 0l0 -0.140625q-0.0625 -0.953125 -0.515625 -1.4375q-0.4375 -0.5 -1.234375 -0.5zm7.96875 4.6875l1.796875 -6.046875l1.953125 0l-2.921875 8.453125l-1.65625 0l-2.953125 -8.453125l1.96875 0l1.8125 6.046875zm9.875 2.40625q-0.125 -0.25 -0.21875 -0.796875q-0.90625 0.953125 -2.21875 0.953125q-1.28125 0 -2.09375 -0.71875q-0.796875 -0.734375 -0.796875 -1.8125q0 -1.34375 1.0 -2.0625q1.015625 -0.734375 2.875 -0.734375l1.171875 0l0 -0.546875q0 -0.65625 -0.375 -1.046875q-0.359375 -0.40625 -1.109375 -0.40625q-0.65625 0 -1.078125 0.328125q-0.40625 0.328125 -0.40625 0.828125l-1.890625 0q0 -0.703125 0.453125 -1.296875q0.46875 -0.609375 1.25 -0.953125q0.796875 -0.34375 1.78125 -0.34375q1.484375 0 2.359375 0.75q0.890625 0.734375 0.90625 2.09375l0 3.8125q0 1.140625 0.328125 1.8125l0 0.140625l-1.9375 0zm-2.09375 -1.375q0.5625 0 1.0625 -0.265625q0.5 -0.28125 0.75 -0.734375l0 -1.59375l-1.03125 0q-1.046875 0 -1.578125 0.375q-0.53125 0.359375 -0.53125 1.03125q0 0.546875 0.359375 0.875q0.359375 0.3125 0.96875 0.3125zm7.453125 -7.078125l0.0625 0.96875q0.9375 -1.125 2.453125 -1.125q2.640625 0 2.6875 3.015625l0 5.59375l-1.890625 0l0 -5.484375q0 -0.796875 -0.359375 -1.1875q-0.34375 -0.390625 -1.125 -0.390625q-1.15625 0 -1.71875 1.046875l0 6.015625l-1.890625 0l0 -8.453125l1.78125 0zm9.5234375 -2.0625l0 2.0625l1.484375 0l0 1.40625l-1.484375 0l0 4.71875q0 0.484375 0.1875 0.703125q0.1875 0.203125 0.6875 0.203125q0.328125 0 0.65625 -0.078125l0 1.46875q-0.640625 0.1875 -1.25 0.1875q-2.1875 0 -2.1875 -2.421875l0 -4.78125l-1.390625 0l0 -1.40625l1.390625 0l0 -2.0625l1.90625 0zm6.6640625 10.671875q-1.8125 0 -2.9375 -1.140625q-1.109375 -1.140625 -1.109375 -3.03125l0 -0.234375q0 -1.265625 0.484375 -2.25q0.484375 -1.0 1.359375 -1.546875q0.890625 -0.5625 1.984375 -0.5625q1.71875 0 2.65625 1.109375q0.953125 1.09375 0.953125 3.109375l0 0.765625l-5.53125 0q0.09375 1.046875 0.703125 1.65625q0.609375 0.609375 1.546875 0.609375q1.296875 0 2.125 -1.0625l1.015625 0.984375q-0.5 0.75 -1.359375 1.171875q-0.84375 0.421875 -1.890625 0.421875zm-0.234375 -7.25q-0.78125 0 -1.265625 0.546875q-0.46875 0.546875 -0.609375 1.53125l3.625 0l0 -0.140625q-0.0625 -0.953125 -0.515625 -1.4375q-0.4375 -0.5 -1.234375 -0.5z" fill-rule="nonzero"/><path fill="#efefef" d="m557.0064 134.30687l299.937 0l0 61.259842l-299.937 0z" fill-rule="evenodd"/><path stroke="#999999" stroke-width="1.0" stroke-linejoin="round" stroke-linecap="butt" d="m557.0064 134.30687l299.937 0l0 61.259842l-299.937 0z" fill-rule="evenodd"/><path fill="#000000" d="m576.1939 170.7968l-1.984375 0l-5.0625 -8.078125l0 8.078125l-1.984375 0l0 -11.375l1.984375 0l5.078125 8.09375l0 -8.09375l1.96875 0l0 11.375zm1.796875 -4.3125q0 -1.234375 0.484375 -2.234375q0.5 -1.0 1.390625 -1.53125q0.890625 -0.53125 2.046875 -0.53125q1.703125 0 2.765625 1.109375q1.078125 1.09375 1.15625 2.90625l0.015625 0.453125q0 1.25 -0.484375 2.234375q-0.484375 0.984375 -1.375 1.53125q-0.890625 0.53125 -2.0625 0.53125q-1.796875 0 -2.875 -1.1875q-1.0625 -1.203125 -1.0625 -3.1875l0 -0.09375zm1.890625 0.171875q0 1.296875 0.53125 2.046875q0.546875 0.734375 1.5 0.734375q0.96875 0 1.5 -0.75q0.546875 -0.75 0.546875 -2.203125q0 -1.28125 -0.5625 -2.03125q-0.546875 -0.75 -1.484375 -0.75q-0.9375 0 -1.484375 0.75q-0.546875 0.734375 -0.546875 2.203125zm15.921875 -0.25l-2.203125 0l0 4.390625l-1.984375 0l0 -11.375l4.0 0q1.96875 0 3.03125 0.890625q1.078125 0.875 1.078125 2.546875q0 1.140625 -0.546875 1.90625q-0.546875 0.765625 -1.53125 1.1875l2.546875 4.734375l0 0.109375l-2.109375 0l-2.28125 -4.390625zm-2.203125 -1.578125l2.03125 0q1.0 0 1.5625 -0.5q0.5625 -0.515625 0.5625 -1.390625q0 -0.90625 -0.53125 -1.40625q-0.515625 -0.5 -1.546875 -0.515625l-2.078125 0l0 3.8125zm11.546875 6.125q-1.8125 0 -2.9375 -1.140625q-1.109375 -1.140625 -1.109375 -3.03125l0 -0.234375q0 -1.265625 0.484375 -2.25q0.484375 -1.0 1.359375 -1.546875q0.890625 -0.5625 1.984375 -0.5625q1.71875 0 2.65625 1.109375q0.953125 1.09375 0.953125 3.109375l0 0.765625l-5.53125 0q0.09375 1.046875 0.703125 1.65625q0.609375 0.609375 1.546875 0.609375q1.296875 0 2.125 -1.0625l1.015625 0.984375q-0.5 0.75 -1.359375 1.171875q-0.84375 0.421875 -1.890625 0.421875zm-0.234375 -7.25q-0.78125 0 -1.265625 0.546875q-0.46875 0.546875 -0.609375 1.53125l3.625 0l0 -0.140625q-0.0625 -0.953125 -0.515625 -1.4375q-0.4375 -0.5 -1.234375 -0.5zm7.1171875 7.09375l-1.90625 0l0 -12.0l1.90625 0l0 12.0zm5.7890625 0.15625q-1.8125 0 -2.9375 -1.140625q-1.109375 -1.140625 -1.109375 -3.03125l0 -0.234375q0 -1.265625 0.484375 -2.25q0.484375 -1.0 1.359375 -1.546875q0.890625 -0.5625 1.984375 -0.5625q1.71875 0 2.65625 1.109375q0.953125 1.09375 0.953125 3.109375l0 0.765625l-5.53125 0q0.09375 1.046875 0.703125 1.65625q0.609375 0.609375 1.546875 0.609375q1.296875 0 2.125 -1.0625l1.015625 0.984375q-0.5 0.75 -1.359375 1.171875q-0.84375 0.421875 -1.890625 0.421875zm-0.234375 -7.25q-0.78125 0 -1.265625 0.546875q-0.46875 0.546875 -0.609375 1.53125l3.625 0l0 -0.140625q-0.0625 -0.953125 -0.515625 -1.4375q-0.4375 -0.5 -1.234375 -0.5zm7.96875 4.6875l1.796875 -6.046875l1.953125 0l-2.921875 8.453125l-1.65625 0l-2.953125 -8.453125l1.96875 0l1.8125 6.046875zm9.875 2.40625q-0.125 -0.25 -0.21875 -0.796875q-0.90625 0.953125 -2.21875 0.953125q-1.28125 0 -2.09375 -0.71875q-0.796875 -0.734375 -0.796875 -1.8125q0 -1.34375 1.0 -2.0625q1.015625 -0.734375 2.875 -0.734375l1.171875 0l0 -0.546875q0 -0.65625 -0.375 -1.046875q-0.359375 -0.40625 -1.109375 -0.40625q-0.65625 0 -1.078125 0.328125q-0.40625 0.328125 -0.40625 0.828125l-1.890625 0q0 -0.703125 0.453125 -1.296875q0.46875 -0.609375 1.25 -0.953125q0.796875 -0.34375 1.78125 -0.34375q1.484375 0 2.359375 0.75q0.890625 0.734375 0.90625 2.09375l0 3.8125q0 1.140625 0.328125 1.8125l0 0.140625l-1.9375 0zm-2.09375 -1.375q0.5625 0 1.0625 -0.265625q0.5 -0.28125 0.75 -0.734375l0 -1.59375l-1.03125 0q-1.046875 0 -1.578125 0.375q-0.53125 0.359375 -0.53125 1.03125q0 0.546875 0.359375 0.875q0.359375 0.3125 0.96875 0.3125zm7.453125 -7.078125l0.0625 0.96875q0.9375 -1.125 2.453125 -1.125q2.640625 0 2.6875 3.015625l0 5.59375l-1.890625 0l0 -5.484375q0 -0.796875 -0.359375 -1.1875q-0.34375 -0.390625 -1.125 -0.390625q-1.15625 0 -1.71875 1.046875l0 6.015625l-1.890625 0l0 -8.453125l1.78125 0zm9.5234375 -2.0625l0 2.0625l1.484375 0l0 1.40625l-1.484375 0l0 4.71875q0 0.484375 0.1875 0.703125q0.1875 0.203125 0.6875 0.203125q0.328125 0 0.65625 -0.078125l0 1.46875q-0.640625 0.1875 -1.25 0.1875q-2.1875 0 -2.1875 -2.421875l0 -4.78125l-1.390625 0l0 -1.40625l1.390625 0l0 -2.0625l1.90625 0zm6.6640625 10.671875q-1.8125 0 -2.9375 -1.140625q-1.109375 -1.140625 -1.109375 -3.03125l0 -0.234375q0 -1.265625 0.484375 -2.25q0.484375 -1.0 1.359375 -1.546875q0.890625 -0.5625 1.984375 -0.5625q1.71875 0 2.65625 1.109375q0.953125 1.09375 0.953125 3.109375l0 0.765625l-5.53125 0q0.09375 1.046875 0.703125 1.65625q0.609375 0.609375 1.546875 0.609375q1.296875 0 2.125 -1.0625l1.015625 0.984375q-0.5 0.75 -1.359375 1.171875q-0.84375 0.421875 -1.890625 0.421875zm-0.234375 -7.25q-0.78125 0 -1.265625 0.546875q-0.46875 0.546875 -0.609375 1.53125l3.625 0l0 -0.140625q-0.0625 -0.953125 -0.515625 -1.4375q-0.4375 -0.5 -1.234375 -0.5z" fill-rule="nonzero"/><path fill="#000000" fill-opacity="0.0" d="m501.2261 121.58478l27.891998 0l0 -46.078735l27.887512 0" fill-rule="evenodd"/><path stroke="#999999" stroke-width="1.0" stroke-linejoin="round" stroke-linecap="butt" d="m501.2261 121.58478l27.891998 0l0 -46.078735l27.887512 0" fill-rule="evenodd"/><path fill="#000000" fill-opacity="0.0" d="m501.2261 121.58478l27.891998 0l0 43.338593l27.887512 0" fill-rule="evenodd"/><path stroke="#999999" stroke-width="1.0" stroke-linejoin="round" stroke-linecap="butt" d="m501.2261 121.58478l27.891998 0l0 43.338593l27.887512 0" fill-rule="evenodd"/><path fill="#cfe2f3" d="m512.9344 121.580574l0 0c0 -7.984215 7.241028 -14.456696 16.173279 -14.456696l0 0c8.93219 0 16.173218 6.472481 16.173218 14.456696l0 0c0 7.984215 -7.241028 14.456688 -16.173218 14.456688l0 0c-8.932251 0 -16.173279 -6.472473 -16.173279 -14.456688z" fill-rule="evenodd"/><path fill="#000000" fill-opacity="0.0" d="m529.10767 107.12388l0 28.913383m-16.173279 -14.456688l32.346497 0" fill-rule="evenodd"/><path fill="#000000" fill-opacity="0.0" d="m512.9344 121.580574l0 0c0 -7.984215 7.241028 -14.456696 16.173279 -14.456696l0 0c8.93219 0 16.173218 6.472481 16.173218 14.456696l0 0c0 7.984215 -7.241028 14.456688 -16.173218 14.456688l0 0c-8.932251 0 -16.173279 -6.472473 -16.173279 -14.456688z" fill-rule="evenodd"/><path stroke="#999999" stroke-width="1.0" stroke-linejoin="round" stroke-linecap="butt" d="m529.10767 107.12388l0 28.913383m-16.173279 -14.456688l32.346497 0" fill-rule="evenodd"/><path stroke="#999999" stroke-width="1.0" stroke-linejoin="round" stroke-linecap="butt" d="m512.9344 121.580574l0 0c0 -7.984215 7.241028 -14.456696 16.173279 -14.456696l0 0c8.93219 0 16.173218 6.472481 16.173218 14.456696l0 0c0 7.984215 -7.241028 14.456688 -16.173218 14.456688l0 0c-8.932251 0 -16.173279 -6.472473 -16.173279 -14.456688z" fill-rule="evenodd"/><path fill="#000000" fill-opacity="0.0" d="m215.99171 211.76532l0 -90.17323l36.503937 0" fill-rule="evenodd"/><path stroke="#999999" stroke-width="1.0" stroke-linejoin="round" stroke-linecap="butt" d="m215.99171 211.76532l0 -90.17323l30.503937 0" fill-rule="evenodd"/><path fill="#999999" stroke="#999999" stroke-width="1.0" stroke-linecap="butt" d="m246.49565 123.24382l4.538101 -1.6517334l-4.538101 -1.6517334z" fill-rule="evenodd"/><path fill="#000000" fill-opacity="0.0" d="m215.99171 240.6787l0 118.3307l36.503937 0" fill-rule="evenodd"/><path stroke="#999999" stroke-width="1.0" stroke-linejoin="round" stroke-linecap="butt" d="m215.99171 240.6787l0 118.3307l30.503937 0" fill-rule="evenodd"/><path fill="#999999" stroke="#999999" stroke-width="1.0" stroke-linecap="butt" d="m246.49565 360.66113l4.538101 -1.6517334l-4.538101 -1.6517334z" fill-rule="evenodd"/><path fill="#000000" fill-opacity="0.0" d="m147.47244 226.22307l52.34645 0" fill-rule="evenodd"/><path stroke="#999999" stroke-width="1.0" stroke-linejoin="round" stroke-linecap="butt" d="m147.47244 226.22308l46.34645 0" fill-rule="evenodd"/><path fill="#999999" stroke="#999999" stroke-width="1.0" stroke-linecap="butt" d="m193.8189 227.8748l4.538101 -1.6517181l-4.538101 -1.6517334z" fill-rule="evenodd"/></g></svg>
